<svg xmlns="http://www.w3.org/2000/svg" xmlns:xlink="http://www.w3.org/1999/xlink" width="332.5" height="516.89" viewBox="0 0 332.5 516.89">
  <defs>
    <clipPath id="clip-path">
      <path id="Trazado_964552" data-name="Trazado 964552" d="M4.786,0H327.714c2.643,0,4.786,8.673,4.786,19.371V497.519c0,10.7-2.143,19.371-4.786,19.371H4.786C2.143,516.89,0,508.217,0,497.519V19.371C0,8.673,2.143,0,4.786,0Z" transform="translate(-1166.105 -10140.5)" fill="#f6f6f6"/>
    </clipPath>
    <clipPath id="clip-path-2">
      <path id="Trazado_964533" data-name="Trazado 964533" d="M49.706,46.522l957.9,26.307,23.839,818.677L73.545,865.2Z" fill="#fff"/>
    </clipPath>
    <clipPath id="clip-path-3">
      <path id="Trazado_964538" data-name="Trazado 964538" d="M577.374,56.388c-180.527,28.5-348.849,112.724-464.84,242.1C83,331.444,56.416,368.047,44.8,410.381s-6.385,91.4,22.754,127.811c37.616,47.013,103.561,62.553,172.332,78.461-20.836,8.463-29.417,33.922-22.23,55.053C233.012,716.873,289,727.775,335.4,727.724c154.621-.176,296.218-68.93,417.443-153.106,63.685-44.224,124.29-93.864,168.082-156.033,28.773-40.845,51.532-101.2,7.852-141.456-20.149-18.574-54.531-23.735-75.789-4.83,33.87-34.759,33.155-92.88,5.646-135.408S781.6,66.812,730.785,55.755A311.51,311.51,0,0,0,673.088,49c-32.118-.895-64.3,2.428-95.714,7.388" fill="#fff"/>
    </clipPath>
    <clipPath id="clip-path-4">
      <path id="Trazado_964540" data-name="Trazado 964540" d="M0,0,963.452-18.935,946.293,794.708-17.159,813.643Z" fill="#fff"/>
    </clipPath>
    <clipPath id="clip-path-5">
      <path id="Trazado_964545" data-name="Trazado 964545" d="M537.247-20.431C353.991,16.436,180.224,108.185,56.895,242.4c-31.4,34.19-60.019,71.871-73.85,114.55s-11.027,91.26,16.49,126.128c35.522,45.017,101.159,57.376,169.624,69.97-21.412,9.4-31.334,35.145-25.158,55.837,13.2,44.227,69.041,52.44,115.771,50.2,155.74-7.458,301.811-82.552,428.139-172.036,66.366-47.012,129.9-99.269,177.135-163.2,31.033-42,56.991-103.14,15.022-141.15-19.36-17.537-53.729-21.053-76.09-1.238,35.861-36.188,38.063-94,12.5-135.028S742.413-19.677,691.791-28.287a308.624,308.624,0,0,0-57.772-4.006c-32.3.622-64.88,5.445-96.772,11.861" fill="#fff"/>
    </clipPath>
  </defs>
  <g id="Grupo_1101358" data-name="Grupo 1101358" transform="translate(-3124.25 -2939.11)">
    <g id="Enmascarar_grupo_1098804" data-name="Enmascarar grupo 1098804" transform="translate(4290.355 13079.61)" clip-path="url(#clip-path)">
      <path id="Trazado_964531" data-name="Trazado 964531" d="M14.759,0h995.853c8.151,0,14.759,8.673,14.759,19.371V497.519c0,10.7-6.608,19.371-14.759,19.371H14.759C6.608,516.889,0,508.217,0,497.519V19.371C0,8.673,6.608,0,14.759,0Z" transform="translate(-1166.105 -10140.5)" fill="#f6f6f6"/>
      <g id="Grupo_1101288" data-name="Grupo 1101288" transform="matrix(-0.927, 0.375, -0.375, -0.927, 447.717, -9606.505)" opacity="0.49" style="isolation: isolate">
        <g id="Grupo_1101285" data-name="Grupo 1101285" transform="translate(0 0)">
          <g id="Grupo_1101284" data-name="Grupo 1101284" clip-path="url(#clip-path-2)">
            <path id="Trazado_964532" data-name="Trazado 964532" d="M852.983,272.3c33.87-34.759,33.146-92.88,5.647-135.409S781.589,66.812,730.785,55.756s-103.1-7.316-153.411.625C396.847,84.891,228.516,169.113,112.534,298.488,83,331.437,56.407,368.048,44.8,410.382s-6.385,91.388,22.754,127.8c37.608,47.013,103.562,62.561,172.332,78.47-20.845,8.463-29.418,33.913-22.23,55.053,15.358,45.166,71.339,56.068,117.734,56.017,154.63-.176,296.226-68.938,417.442-153.106,63.685-44.224,124.29-93.864,168.081-156.033,28.782-40.853,51.541-101.2,7.86-141.464-20.148-18.566-54.531-23.727-75.788-4.822" transform="translate(64.44 92.009)" fill="#fff"/>
          </g>
        </g>
        <g id="Grupo_1101287" data-name="Grupo 1101287" transform="translate(64.44 92.01)">
          <g id="Grupo_1101286" data-name="Grupo 1101286" transform="translate(0 0)" clip-path="url(#clip-path-3)">
            <path id="Trazado_964534" data-name="Trazado 964534" d="M32.256,379.462S515.07,480.492,416.748,30.122" transform="translate(-29.251 26.24)" fill="#fff"/>
            <path id="Trazado_964535" data-name="Trazado 964535" d="M50.124,589.667S483.012,735.8,634.736,45.878" transform="translate(-41.968 -9.743)" fill="#fff"/>
            <path id="Trazado_964536" data-name="Trazado 964536" d="M71.368,839.585s278.74,35.876,434.193-294.978S649.193,46.923,649.193,46.923" transform="translate(100.261 -66.977)" fill="#fff"/>
            <path id="Trazado_964537" data-name="Trazado 964537" d="M381.3,27.56s-5.438,300.433-337.107,492.3" transform="translate(531.246 181.185)" fill="#fff"/>
          </g>
        </g>
      </g>
      <ellipse id="Elipse_11659" data-name="Elipse 11659" cx="258.41" cy="237.821" rx="258.41" ry="237.821" transform="translate(-1151.221 -10291.807)" fill="#e8e8e8" opacity="0.37" style="mix-blend-mode: multiply;isolation: isolate"/>
      <ellipse id="Elipse_11660" data-name="Elipse 11660" cx="258.581" cy="238.36" rx="258.581" ry="238.36" transform="translate(-1409.948 -9962.417)" fill="#fff" opacity="0.65"/>
      <ellipse id="Elipse_11661" data-name="Elipse 11661" cx="258.581" cy="238.36" rx="258.581" ry="238.36" transform="translate(-473.032 -10267.145)" fill="#fff" opacity="0.65"/>
      <g id="Grupo_1101293" data-name="Grupo 1101293" transform="translate(-649.876 -9493.354) rotate(-165)" opacity="0.3" style="isolation: isolate">
        <g id="Grupo_1101290" data-name="Grupo 1101290" transform="translate(0 0)">
          <g id="Grupo_1101289" data-name="Grupo 1101289" clip-path="url(#clip-path-4)">
            <path id="Trazado_964539" data-name="Trazado 964539" d="M803.978,181.469c35.862-36.188,38.055-94,12.5-135.028S742.4-19.674,691.791-28.284s-103.47-2.425-154.544,7.847C353.991,16.439,180.215,108.188,56.895,242.407c-31.4,34.182-60.028,71.871-73.85,114.55S-27.982,448.208-.465,483.077c35.513,45.017,101.159,57.385,169.624,69.978-21.42,9.4-31.334,35.137-25.158,55.837,13.2,44.227,69.032,52.44,115.762,50.2,155.749-7.458,301.82-82.561,428.139-172.036,66.366-47.012,129.9-99.269,177.135-163.2,31.043-42.013,57-103.14,15.031-141.159-19.36-17.528-53.729-21.045-76.09-1.23" transform="translate(53.99 93.931)" fill="#fff"/>
          </g>
        </g>
        <g id="Grupo_1101292" data-name="Grupo 1101292" transform="translate(53.99 93.934)">
          <g id="Grupo_1101291" data-name="Grupo 1101291" transform="translate(0 0)" clip-path="url(#clip-path-5)">
            <path id="Trazado_964541" data-name="Trazado 964541" d="M-21.565,346.141s481.2,77.807,404.821-365.781" transform="translate(-37.247 8.124)" fill="#fff"/>
            <path id="Trazado_964542" data-name="Trazado 964542" d="M-33.573,538.873S395.074,663.921,582.583-29.853" transform="translate(-28.813 -11.46)" fill="#fff"/>
            <path id="Trazado_964543" data-name="Trazado 964543" d="M-49.015,786.738s278.938,22.576,452.145-314.018S572.82-29.353,572.82-29.353" transform="translate(141.587 -75.261)" fill="#fff"/>
            <path id="Trazado_964544" data-name="Trazado 964544" d="M333.836-17.107S313.25,282.147-30.448,488.721" transform="translate(533.325 132.517)" fill="#fff"/>
          </g>
        </g>
      </g>
      <g id="Grupo_1101294" data-name="Grupo 1101294" transform="translate(-1354.218 -10378.391)">
        <path id="Trazado_964546" data-name="Trazado 964546" d="M636.265,409.3S526.244-14.869,1.323,11.7" transform="translate(567.495 846.017) rotate(-43)" fill="none" stroke="#e8e8e8" stroke-linecap="round" stroke-linejoin="round" stroke-width="1"/>
        <path id="Trazado_964547" data-name="Trazado 964547" d="M92.749,10.325S-64.079,133.381,72.436,237.087" transform="translate(1024.487 453.253) rotate(-43)" fill="none" stroke="#e8e8e8" stroke-linecap="round" stroke-linejoin="round" stroke-width="1"/>
        <path id="Trazado_964548" data-name="Trazado 964548" d="M550.708,61.3c-11.8,139.874-57.7,153.036-151.231,156.644S327.47,320.122,174.384,244.242,9.184,81.216,9.184,81.216" transform="translate(0 330.746) rotate(-43)" fill="none" stroke="#e8e8e8" stroke-linecap="round" stroke-linejoin="round" stroke-width="1"/>
        <path id="Trazado_964549" data-name="Trazado 964549" d="M164.278,18.288s97.973,94.841,39.44,140.223S7.635,67.521,7.635,67.521" transform="translate(113.538 250.685) rotate(-43)" fill="none" stroke="#e8e8e8" stroke-linecap="round" stroke-linejoin="round" stroke-width="1"/>
        <path id="Trazado_964550" data-name="Trazado 964550" d="M260.566,178.635C263.085,71.878,132.3-34.911,3.444,30.454" transform="translate(712.74 799.327) rotate(-43)" fill="none" stroke="#e8e8e8" stroke-linecap="round" stroke-linejoin="round" stroke-width="1"/>
        <path id="Trazado_964551" data-name="Trazado 964551" d="M359.845,49.8c-34.668,8.434-64.975,31.984-72.391,64.087s12.939,71.42,40.631,84.852c-39.819-12.8-80-25.673-121.192-30.82s-84.036-2.039-118.648,15.738-59.514,51.94-57.241,89.5c2.639,43.6,38.894,81.39,75.208,112.459,105.991,90.68,232.372,161.9,367.9,203.155,43.052,13.1,91.454,22.881,129.55,5.047,36.412-17.042,54.215-56.8,51.889-95.431s-21.878-76.123-46.022-109.614-53.109-64.109-78.874-95.26c22.053,1.577,44.366,3.146,65.739-.176s42.048-12.095,54.277-27.831c14.595-18.783,15.092-45.266,6.06-68.385s-26.525-43.289-45.9-60.923c-39.979-36.383-89.46-64.027-142.286-79.489-20.516-6-41.883-10.172-62.919-11.037A164.94,164.94,0,0,0,359.845,49.8" transform="translate(366.833 581.916) rotate(-43)" fill="none"/>
      </g>
    </g>
    <rect id="Rectángulo_4222" data-name="Rectángulo 4222" width="131.5" height="45.967" rx="8" transform="translate(3154 3326.599)" fill="#ffd75e"/>
    <rect id="Rectángulo_4224" data-name="Rectángulo 4224" width="136.822" height="45.967" rx="8" transform="translate(3154 3201.35)" fill="#ffd75e"/>
    <rect id="Rectángulo_4225" data-name="Rectángulo 4225" width="110.351" height="45.967" rx="8" transform="translate(3154 3081.818)" fill="#ffd75e"/>
    <rect id="Rectángulo_4226" data-name="Rectángulo 4226" width="64.351" height="45.967" rx="8" transform="translate(3154 2963.533)" fill="#ffd75e"/>
    <rect id="Rectángulo_4223" data-name="Rectángulo 4223" width="287.67" height="45.967" rx="8" transform="translate(3154 3379.311)" fill="#a0c9f6"/>
    <rect id="Rectángulo_4227" data-name="Rectángulo 4227" width="273" height="45.967" rx="8" transform="translate(3154 3254.062)" fill="#a0c9f6"/>
    <rect id="Rectángulo_4229" data-name="Rectángulo 4229" width="241" height="45.967" rx="8" transform="translate(3154 3016.245)" fill="#a0c9f6"/>
    <g id="Grupo_1101357" data-name="Grupo 1101357">
      <path id="Trazado_964794" data-name="Trazado 964794" d="M8,0H203.643a8,8,0,0,1,8,8V37.967a8,8,0,0,1-8,8H8a8,8,0,0,1-8-8V8A8,8,0,0,1,8,0Z" transform="translate(3154 3134.53)" fill="#a0c9f6"/>
      <path id="Trazado_964791" data-name="Trazado 964791" d="M7.758,7.852H3.8V10.6H7.438v2.047H3.8V17H1.281V5.8H7.758Zm2.852-.117a1.442,1.442,0,0,1-1.023-.371,1.2,1.2,0,0,1-.4-.91,1.153,1.153,0,0,1,.4-.906A1.49,1.49,0,0,1,10.609,5.2a1.486,1.486,0,0,1,1.027.352,1.158,1.158,0,0,1,.395.906,1.191,1.191,0,0,1-.395.922A1.466,1.466,0,0,1,10.609,7.734ZM11.828,17H9.359V9h2.469Zm9.8,0H19.172V12.555q0-1.859-1.328-1.859a1.318,1.318,0,0,0-1.055.492,1.875,1.875,0,0,0-.414,1.25V17H13.906V9h2.469v1.266h.031A2.829,2.829,0,0,1,18.977,8.8q2.656,0,2.656,3.3Z" transform="translate(3176 2975.791)" fill="#12263f"/>
      <path id="Trazado_964793" data-name="Trazado 964793" d="M3.8,13.141V17H1.281V5.8H5.234q4.234,0,4.234,3.57A3.426,3.426,0,0,1,8.254,12.1a4.813,4.813,0,0,1-3.246,1.043Zm0-5.406v3.492H4.8q2.016,0,2.016-1.766,0-1.727-2.016-1.727Zm12.281,3.492a2.142,2.142,0,0,0-1.039-.242,1.5,1.5,0,0,0-1.258.59,2.573,2.573,0,0,0-.453,1.605V17H10.867V9h2.469v1.484h.031a2.136,2.136,0,0,1,2.109-1.625,1.59,1.59,0,0,1,.609.094Zm4.9,5.969a4.3,4.3,0,0,1-3.145-1.121A4.064,4.064,0,0,1,16.7,13.031a4.065,4.065,0,0,1,1.188-3.105A4.487,4.487,0,0,1,21.094,8.8a4.249,4.249,0,0,1,3.125,1.121,3.985,3.985,0,0,1,1.133,2.965,4.23,4.23,0,0,1-1.168,3.148A4.348,4.348,0,0,1,20.984,17.2Zm.063-6.5a1.647,1.647,0,0,0-1.359.6A2.653,2.653,0,0,0,19.2,13q0,2.3,1.859,2.3,1.773,0,1.773-2.367Q22.836,10.7,21.047,10.7Zm8.406,5.375h-.031V20.68H26.953V9h2.469v1.2h.031a3.142,3.142,0,0,1,4.973-.332,4.54,4.54,0,0,1,.848,2.9,4.922,4.922,0,0,1-.988,3.211A3.222,3.222,0,0,1,31.656,17.2,2.491,2.491,0,0,1,29.453,16.07Zm-.07-3.281v.641a2.037,2.037,0,0,0,.438,1.352,1.424,1.424,0,0,0,1.148.523,1.514,1.514,0,0,0,1.309-.652,3.15,3.15,0,0,0,.465-1.848q0-2.109-1.641-2.109a1.541,1.541,0,0,0-1.238.574A2.29,2.29,0,0,0,29.383,12.789Zm11.3,4.406a4.3,4.3,0,0,1-3.145-1.121A4.064,4.064,0,0,1,36.4,13.031a4.065,4.065,0,0,1,1.188-3.105A4.487,4.487,0,0,1,40.8,8.8a4.249,4.249,0,0,1,3.125,1.121,3.985,3.985,0,0,1,1.133,2.965,4.23,4.23,0,0,1-1.168,3.148A4.348,4.348,0,0,1,40.688,17.2Zm.063-6.5a1.647,1.647,0,0,0-1.359.6,2.653,2.653,0,0,0-.484,1.7q0,2.3,1.859,2.3,1.773,0,1.773-2.367Q42.539,10.7,40.75,10.7ZM43.4,5.211,40.953,7.734H39.172L41.2,5.211Zm2.727,11.578v-2a5.256,5.256,0,0,0,1.215.547,4.028,4.028,0,0,0,1.145.18,2.455,2.455,0,0,0,1.035-.18.581.581,0,0,0,.379-.547.506.506,0,0,0-.172-.391,1.6,1.6,0,0,0-.441-.273,5.009,5.009,0,0,0-.59-.211q-.32-.094-.617-.211a5.914,5.914,0,0,1-.84-.387,2.427,2.427,0,0,1-.609-.48,1.889,1.889,0,0,1-.375-.633,2.525,2.525,0,0,1-.129-.852,2.192,2.192,0,0,1,.293-1.156A2.393,2.393,0,0,1,47.2,9.4a3.57,3.57,0,0,1,1.117-.453A5.825,5.825,0,0,1,49.625,8.8a7.261,7.261,0,0,1,1.078.082,8.047,8.047,0,0,1,1.078.238v1.906a3.9,3.9,0,0,0-1-.41,4.235,4.235,0,0,0-1.051-.137,2.328,2.328,0,0,0-.457.043,1.505,1.505,0,0,0-.379.125.7.7,0,0,0-.258.211.486.486,0,0,0-.094.293.541.541,0,0,0,.141.375,1.221,1.221,0,0,0,.367.27,3.625,3.625,0,0,0,.5.2q.277.09.551.184a7.161,7.161,0,0,1,.891.375,2.848,2.848,0,0,1,.684.477,1.871,1.871,0,0,1,.438.641,2.563,2.563,0,0,1-.156,2.09,2.471,2.471,0,0,1-.82.82,3.72,3.72,0,0,1-1.18.461,6.54,6.54,0,0,1-1.387.145A7.149,7.149,0,0,1,46.125,16.789Zm8.813-9.055a1.442,1.442,0,0,1-1.023-.371,1.2,1.2,0,0,1-.4-.91,1.153,1.153,0,0,1,.4-.906,1.671,1.671,0,0,1,2.051,0,1.158,1.158,0,0,1,.395.906,1.191,1.191,0,0,1-.395.922A1.466,1.466,0,0,1,54.938,7.734ZM56.156,17H53.688V9h2.469Zm6.914-.094a3.649,3.649,0,0,1-1.648.289q-2.609,0-2.609-2.711V10.82h-1.3V9h1.3V7.273l2.461-.7V9h1.8v1.82h-1.8v3.234q0,1.25.992,1.25a1.673,1.673,0,0,0,.8-.227Zm5.141.289a4.3,4.3,0,0,1-3.145-1.121,4.064,4.064,0,0,1-1.145-3.043,4.065,4.065,0,0,1,1.188-3.105A4.487,4.487,0,0,1,68.32,8.8a4.249,4.249,0,0,1,3.125,1.121,3.985,3.985,0,0,1,1.133,2.965,4.23,4.23,0,0,1-1.168,3.148A4.348,4.348,0,0,1,68.211,17.2Zm.063-6.5a1.647,1.647,0,0,0-1.359.6A2.653,2.653,0,0,0,66.43,13q0,2.3,1.859,2.3,1.773,0,1.773-2.367Q70.063,10.7,68.273,10.7Z" transform="translate(3176 3094.075)" fill="#12263f"/>
      <path id="Trazado_964796" data-name="Trazado 964796" d="M9.313,16.6a7.388,7.388,0,0,1-3.2.594A5.4,5.4,0,0,1,2.055,15.68,5.54,5.54,0,0,1,.578,11.641a5.919,5.919,0,0,1,1.66-4.359A5.807,5.807,0,0,1,6.547,5.609a8.058,8.058,0,0,1,2.766.414v2.43A4.9,4.9,0,0,0,6.75,7.781,3.4,3.4,0,0,0,4.2,8.773a3.682,3.682,0,0,0-.969,2.688,3.611,3.611,0,0,0,.914,2.59,3.229,3.229,0,0,0,2.461.965,5.249,5.249,0,0,0,2.7-.719Zm5.523.594a4.3,4.3,0,0,1-3.145-1.121,4.064,4.064,0,0,1-1.145-3.043,4.065,4.065,0,0,1,1.188-3.105A4.487,4.487,0,0,1,14.945,8.8,4.249,4.249,0,0,1,18.07,9.926,3.985,3.985,0,0,1,19.2,12.891a4.23,4.23,0,0,1-1.168,3.148A4.348,4.348,0,0,1,14.836,17.2Zm.063-6.5a1.647,1.647,0,0,0-1.359.6,2.653,2.653,0,0,0-.484,1.7q0,2.3,1.859,2.3,1.773,0,1.773-2.367Q16.688,10.7,14.9,10.7ZM33.508,17H31.047V12.438q0-1.742-1.281-1.742a1.177,1.177,0,0,0-.992.523,2.151,2.151,0,0,0-.383,1.3V17H25.922V12.391q0-1.7-1.258-1.7a1.206,1.206,0,0,0-1.012.5,2.2,2.2,0,0,0-.379,1.359V17H20.8V9h2.469v1.25H23.3A3.031,3.031,0,0,1,25.891,8.8a2.3,2.3,0,0,1,2.32,1.492A2.959,2.959,0,0,1,30.9,8.8q2.609,0,2.609,3.219Zm4.453-.93H37.93V20.68H35.461V9H37.93v1.2h.031a3.142,3.142,0,0,1,4.973-.332,4.54,4.54,0,0,1,.848,2.9,4.922,4.922,0,0,1-.988,3.211A3.222,3.222,0,0,1,40.164,17.2,2.491,2.491,0,0,1,37.961,16.07Zm-.07-3.281v.641a2.037,2.037,0,0,0,.438,1.352,1.424,1.424,0,0,0,1.148.523,1.514,1.514,0,0,0,1.309-.652A3.15,3.15,0,0,0,41.25,12.8q0-2.109-1.641-2.109a1.541,1.541,0,0,0-1.238.574A2.29,2.29,0,0,0,37.891,12.789ZM49.2,17.2a4.3,4.3,0,0,1-3.145-1.121,4.064,4.064,0,0,1-1.145-3.043,4.065,4.065,0,0,1,1.188-3.105A4.487,4.487,0,0,1,49.3,8.8,4.249,4.249,0,0,1,52.43,9.926a3.985,3.985,0,0,1,1.133,2.965,4.23,4.23,0,0,1-1.168,3.148A4.348,4.348,0,0,1,49.2,17.2Zm.063-6.5a1.647,1.647,0,0,0-1.359.6,2.653,2.653,0,0,0-.484,1.7q0,2.3,1.859,2.3,1.773,0,1.773-2.367Q51.047,10.7,49.258,10.7ZM62.891,17H60.43V12.555q0-1.859-1.328-1.859a1.318,1.318,0,0,0-1.055.492,1.875,1.875,0,0,0-.414,1.25V17H55.164V9h2.469v1.266h.031A2.829,2.829,0,0,1,60.234,8.8q2.656,0,2.656,3.3Zm9.141-3.3H66.813q.125,1.742,2.2,1.742a4.286,4.286,0,0,0,2.32-.625V16.6a6.1,6.1,0,0,1-2.883.594,4.058,4.058,0,0,1-3.008-1.074,4.058,4.058,0,0,1-1.07-3,4.281,4.281,0,0,1,1.156-3.156A3.852,3.852,0,0,1,68.367,8.8a3.5,3.5,0,0,1,2.707,1.039,4,4,0,0,1,.957,2.82Zm-2.289-1.516q0-1.719-1.391-1.719a1.328,1.328,0,0,0-1.027.492,2.234,2.234,0,0,0-.527,1.227ZM81.227,17H78.766V12.555q0-1.859-1.328-1.859a1.318,1.318,0,0,0-1.055.492,1.875,1.875,0,0,0-.414,1.25V17H73.5V9h2.469v1.266H76A2.829,2.829,0,0,1,78.57,8.8q2.656,0,2.656,3.3Zm6.789-.094a3.649,3.649,0,0,1-1.648.289q-2.609,0-2.609-2.711V10.82h-1.3V9h1.3V7.273l2.461-.7V9h1.8v1.82h-1.8v3.234q0,1.25.992,1.25a1.673,1.673,0,0,0,.8-.227Zm8.516-3.2H91.313q.125,1.742,2.2,1.742a4.286,4.286,0,0,0,2.32-.625V16.6a6.1,6.1,0,0,1-2.883.594,4.058,4.058,0,0,1-3.008-1.074,4.058,4.058,0,0,1-1.07-3,4.281,4.281,0,0,1,1.156-3.156A3.852,3.852,0,0,1,92.867,8.8a3.5,3.5,0,0,1,2.707,1.039,4,4,0,0,1,.957,2.82Zm-2.289-1.516q0-1.719-1.391-1.719a1.328,1.328,0,0,0-1.027.492,2.234,2.234,0,0,0-.527,1.227Zm3.234,4.6v-2a5.256,5.256,0,0,0,1.215.547,4.028,4.028,0,0,0,1.145.18,2.455,2.455,0,0,0,1.035-.18.581.581,0,0,0,.379-.547.506.506,0,0,0-.172-.391,1.6,1.6,0,0,0-.441-.273,5.009,5.009,0,0,0-.59-.211q-.32-.094-.617-.211a5.913,5.913,0,0,1-.84-.387,2.427,2.427,0,0,1-.609-.48,1.889,1.889,0,0,1-.375-.633,2.525,2.525,0,0,1-.129-.852A2.192,2.192,0,0,1,97.77,10.2a2.393,2.393,0,0,1,.781-.793,3.57,3.57,0,0,1,1.117-.453,5.825,5.825,0,0,1,1.309-.145,7.261,7.261,0,0,1,1.078.082,8.047,8.047,0,0,1,1.078.238v1.906a3.9,3.9,0,0,0-1-.41,4.235,4.235,0,0,0-1.051-.137,2.328,2.328,0,0,0-.457.043,1.505,1.505,0,0,0-.379.125.7.7,0,0,0-.258.211.486.486,0,0,0-.094.293.541.541,0,0,0,.141.375,1.221,1.221,0,0,0,.367.27,3.625,3.625,0,0,0,.5.2q.277.09.551.184a7.161,7.161,0,0,1,.891.375,2.848,2.848,0,0,1,.684.477,1.872,1.872,0,0,1,.438.641,2.563,2.563,0,0,1-.156,2.09,2.471,2.471,0,0,1-.82.82,3.72,3.72,0,0,1-1.18.461,6.54,6.54,0,0,1-1.387.145A7.149,7.149,0,0,1,97.477,16.789Z" transform="translate(3176 3213.607)" fill="#12263f"/>
      <path id="Trazado_964798" data-name="Trazado 964798" d="M11.133,17H8.383l-.8-2.492H3.6L2.813,17H.078L4.156,5.8H7.148ZM7.008,12.57,5.8,8.8A4.907,4.907,0,0,1,5.617,7.8H5.555a4.273,4.273,0,0,1-.2.977l-1.219,3.8Zm11.344,4.141a4.881,4.881,0,0,1-2.414.484,4.083,4.083,0,0,1-2.984-1.117A3.859,3.859,0,0,1,11.813,13.2,4.251,4.251,0,0,1,13.035,9.98,4.518,4.518,0,0,1,16.3,8.8a4.2,4.2,0,0,1,2.047.375v2.094a2.814,2.814,0,0,0-1.727-.578,2.275,2.275,0,0,0-1.684.621,2.317,2.317,0,0,0-.621,1.715,2.28,2.28,0,0,0,.594,1.668,2.182,2.182,0,0,0,1.633.605,3.258,3.258,0,0,0,1.8-.578Zm6.453.2a3.649,3.649,0,0,1-1.648.289q-2.609,0-2.609-2.711V10.82h-1.3V9h1.3V7.273l2.461-.7V9h1.8v1.82h-1.8v3.234q0,1.25.992,1.25a1.673,1.673,0,0,0,.8-.227Zm2.641-9.172a1.442,1.442,0,0,1-1.023-.371,1.2,1.2,0,0,1-.4-.91,1.153,1.153,0,0,1,.4-.906,1.671,1.671,0,0,1,2.051,0,1.158,1.158,0,0,1,.395.906,1.191,1.191,0,0,1-.395.922A1.466,1.466,0,0,1,27.445,7.734ZM28.664,17H26.2V9h2.469Zm9.7-8-2.977,8H32.57L29.734,9h2.641l1.391,4.93a7.2,7.2,0,0,1,.273,1.422h.031a8.069,8.069,0,0,1,.289-1.375L35.781,9Zm2.3-1.266a1.442,1.442,0,0,1-1.023-.371,1.2,1.2,0,0,1-.4-.91,1.153,1.153,0,0,1,.4-.906,1.671,1.671,0,0,1,2.051,0,1.158,1.158,0,0,1,.395.906,1.191,1.191,0,0,1-.395.922A1.466,1.466,0,0,1,40.664,7.734ZM41.883,17H39.414V9h2.469Zm9.906,0H49.32V15.9h-.031a2.768,2.768,0,0,1-2.477,1.3A3.033,3.033,0,0,1,44.4,16.137a4.382,4.382,0,0,1-.914-2.957A4.77,4.77,0,0,1,44.492,10a3.287,3.287,0,0,1,2.641-1.2,2.246,2.246,0,0,1,2.156,1.109h.031V5.156h2.469Zm-2.422-3.891v-.6a1.893,1.893,0,0,0-.453-1.3,1.6,1.6,0,0,0-2.461.129,2.993,2.993,0,0,0-.461,1.77,2.59,2.59,0,0,0,.445,1.625,1.581,1.581,0,0,0,2.457-.031A2.507,2.507,0,0,0,49.367,13.109ZM60.523,17H58.188V15.852h-.031A2.607,2.607,0,0,1,55.773,17.2a2.492,2.492,0,0,1-1.832-.66,2.366,2.366,0,0,1-.668-1.762q0-2.328,2.758-2.687L58.2,11.8q0-1.312-1.422-1.312a4.853,4.853,0,0,0-2.719.852V9.477a6.116,6.116,0,0,1,1.41-.469A7.413,7.413,0,0,1,57.1,8.8q3.422,0,3.422,3.414ZM58.2,13.75v-.539L56.75,13.4q-1.2.156-1.2,1.086a.9.9,0,0,0,.293.691,1.126,1.126,0,0,0,.793.27,1.462,1.462,0,0,0,1.133-.48A1.735,1.735,0,0,0,58.2,13.75ZM70.3,17H67.836V15.9H67.8a2.768,2.768,0,0,1-2.477,1.3,3.033,3.033,0,0,1-2.414-1.059A4.382,4.382,0,0,1,62,13.18,4.77,4.77,0,0,1,63.008,10a3.287,3.287,0,0,1,2.641-1.2A2.246,2.246,0,0,1,67.8,9.914h.031V5.156H70.3Zm-2.422-3.891v-.6a1.893,1.893,0,0,0-.453-1.3,1.6,1.6,0,0,0-2.461.129,2.993,2.993,0,0,0-.461,1.77,2.59,2.59,0,0,0,.445,1.625A1.581,1.581,0,0,0,67.41,14.7,2.507,2.507,0,0,0,67.883,13.109ZM79.57,13.7H74.352q.125,1.742,2.2,1.742a4.286,4.286,0,0,0,2.32-.625V16.6a6.1,6.1,0,0,1-2.883.594,4.058,4.058,0,0,1-3.008-1.074,4.058,4.058,0,0,1-1.07-3,4.281,4.281,0,0,1,1.156-3.156A3.852,3.852,0,0,1,75.906,8.8a3.5,3.5,0,0,1,2.707,1.039,4,4,0,0,1,.957,2.82Zm-2.289-1.516q0-1.719-1.391-1.719a1.328,1.328,0,0,0-1.027.492,2.234,2.234,0,0,0-.527,1.227Zm3.234,4.6v-2a5.256,5.256,0,0,0,1.215.547,4.028,4.028,0,0,0,1.145.18,2.455,2.455,0,0,0,1.035-.18.581.581,0,0,0,.379-.547.506.506,0,0,0-.172-.391,1.6,1.6,0,0,0-.441-.273,5.009,5.009,0,0,0-.59-.211q-.32-.094-.617-.211a5.913,5.913,0,0,1-.84-.387,2.427,2.427,0,0,1-.609-.48,1.889,1.889,0,0,1-.375-.633,2.525,2.525,0,0,1-.129-.852,2.192,2.192,0,0,1,.293-1.156A2.393,2.393,0,0,1,81.59,9.4a3.57,3.57,0,0,1,1.117-.453A5.825,5.825,0,0,1,84.016,8.8a7.261,7.261,0,0,1,1.078.082,8.047,8.047,0,0,1,1.078.238v1.906a3.9,3.9,0,0,0-1-.41,4.235,4.235,0,0,0-1.051-.137,2.328,2.328,0,0,0-.457.043,1.505,1.505,0,0,0-.379.125.7.7,0,0,0-.258.211.486.486,0,0,0-.094.293.541.541,0,0,0,.141.375,1.221,1.221,0,0,0,.367.27,3.625,3.625,0,0,0,.5.2q.277.09.551.184a7.161,7.161,0,0,1,.891.375,2.848,2.848,0,0,1,.684.477,1.872,1.872,0,0,1,.438.641,2.563,2.563,0,0,1-.156,2.09,2.471,2.471,0,0,1-.82.82,3.72,3.72,0,0,1-1.18.461,6.54,6.54,0,0,1-1.387.145A7.149,7.149,0,0,1,80.516,16.789Z" transform="translate(3176 3338.857)" fill="#12263f"/>
      <path id="Trazado_964792" data-name="Trazado 964792" d="M8.012,11.377H5.25v2.755H4.341V11.377H1.586v-.916H4.341V7.706H5.25v2.755H8.012ZM14.239,14.6V13.25a2.629,2.629,0,0,0,.557.369,4.514,4.514,0,0,0,.684.277,5.442,5.442,0,0,0,.721.174,4.021,4.021,0,0,0,.67.062,2.624,2.624,0,0,0,1.583-.393,1.474,1.474,0,0,0,.349-1.822,1.964,1.964,0,0,0-.482-.537,4.782,4.782,0,0,0-.728-.465q-.42-.222-.906-.468-.513-.26-.957-.526a4.147,4.147,0,0,1-.772-.588,2.452,2.452,0,0,1-.516-.728,2.253,2.253,0,0,1-.188-.954,2.242,2.242,0,0,1,.294-1.166,2.521,2.521,0,0,1,.772-.817,3.5,3.5,0,0,1,1.09-.479,4.992,4.992,0,0,1,1.248-.157,4.781,4.781,0,0,1,2.112.349V6.674a3.829,3.829,0,0,0-2.229-.6,3.665,3.665,0,0,0-.752.079,2.124,2.124,0,0,0-.67.256,1.484,1.484,0,0,0-.479.458,1.216,1.216,0,0,0-.185.684,1.407,1.407,0,0,0,.14.649,1.592,1.592,0,0,0,.414.5,4.119,4.119,0,0,0,.667.438q.393.212.906.465t1,.547a4.562,4.562,0,0,1,.827.636,2.825,2.825,0,0,1,.564.772,2.171,2.171,0,0,1,.208.971,2.462,2.462,0,0,1-.284,1.227,2.328,2.328,0,0,1-.766.817,3.344,3.344,0,0,1-1.111.455,6.084,6.084,0,0,1-1.326.14,5.4,5.4,0,0,1-.574-.038q-.342-.038-.7-.109a5.69,5.69,0,0,1-.673-.178A2.1,2.1,0,0,1,14.239,14.6Zm13.405.4H26.523V13.893H26.5a2.3,2.3,0,0,1-2.16,1.271q-2.5,0-2.5-2.98V8h1.114v4.006q0,2.215,1.7,2.215a1.715,1.715,0,0,0,1.35-.6,2.315,2.315,0,0,0,.53-1.583V8h1.121Zm3.411-1.012h-.027V18.22H29.907V8h1.121V9.23h.027a2.651,2.651,0,0,1,2.42-1.395,2.563,2.563,0,0,1,2.112.94,3.893,3.893,0,0,1,.759,2.519,4.339,4.339,0,0,1-.854,2.813,2.845,2.845,0,0,1-2.338,1.056A2.342,2.342,0,0,1,31.056,13.988Zm-.027-2.823v.978a2.081,2.081,0,0,0,.564,1.473,2.012,2.012,0,0,0,3.028-.174,3.575,3.575,0,0,0,.578-2.167,2.822,2.822,0,0,0-.54-1.832A1.787,1.787,0,0,0,33.2,8.779a1.986,1.986,0,0,0-1.572.68A2.5,2.5,0,0,0,31.028,11.165ZM43.8,15H42.677V13.893h-.027a2.3,2.3,0,0,1-2.16,1.271q-2.5,0-2.5-2.98V8H39.1v4.006q0,2.215,1.7,2.215a1.715,1.715,0,0,0,1.35-.6,2.315,2.315,0,0,0,.53-1.583V8H43.8Zm7.889-3.22H46.744a2.618,2.618,0,0,0,.629,1.8,2.168,2.168,0,0,0,1.654.636,3.439,3.439,0,0,0,2.174-.779v1.053a4.063,4.063,0,0,1-2.44.67,2.959,2.959,0,0,1-2.331-.954,3.9,3.9,0,0,1-.848-2.683,3.828,3.828,0,0,1,.926-2.663,2.97,2.97,0,0,1,2.3-1.029,2.632,2.632,0,0,1,2.126.889,3.705,3.705,0,0,1,.752,2.468Zm-1.148-.95a2.281,2.281,0,0,0-.468-1.511,1.6,1.6,0,0,0-1.282-.54,1.811,1.811,0,0,0-1.347.567,2.575,2.575,0,0,0-.684,1.483Zm2.42,3.917v-1.2a3.318,3.318,0,0,0,2.017.677q1.477,0,1.477-.984a.854.854,0,0,0-.126-.475,1.26,1.26,0,0,0-.342-.345,2.631,2.631,0,0,0-.506-.27q-.291-.12-.625-.25a8.056,8.056,0,0,1-.817-.373,2.468,2.468,0,0,1-.588-.424,1.577,1.577,0,0,1-.355-.537,1.9,1.9,0,0,1-.12-.7,1.673,1.673,0,0,1,.226-.872,2,2,0,0,1,.6-.636,2.805,2.805,0,0,1,.858-.386,3.805,3.805,0,0,1,.995-.13,4.016,4.016,0,0,1,1.627.314V9.285A3.171,3.171,0,0,0,55.5,8.779a2.078,2.078,0,0,0-.567.072,1.389,1.389,0,0,0-.434.2.932.932,0,0,0-.28.311.819.819,0,0,0-.1.4.959.959,0,0,0,.1.458,1.008,1.008,0,0,0,.291.328,2.221,2.221,0,0,0,.465.26q.273.116.622.253a8.658,8.658,0,0,1,.834.366,2.86,2.86,0,0,1,.629.424,1.656,1.656,0,0,1,.4.543,1.753,1.753,0,0,1,.14.731,1.725,1.725,0,0,1-.229.9,1.963,1.963,0,0,1-.612.636,2.8,2.8,0,0,1-.882.376,4.354,4.354,0,0,1-1.046.123A3.971,3.971,0,0,1,52.958,14.747Zm9.611.185a2.161,2.161,0,0,1-1.046.219q-1.839,0-1.839-2.051V8.957h-1.2V8h1.2V6.291l1.121-.362V8h1.764v.957H60.806V12.9a1.635,1.635,0,0,0,.239,1,.955.955,0,0,0,.793.3,1.179,1.179,0,0,0,.731-.232Zm4.423.232a3.247,3.247,0,0,1-2.478-.981,3.634,3.634,0,0,1-.926-2.6,3.785,3.785,0,0,1,.964-2.755,3.465,3.465,0,0,1,2.6-.991A3.14,3.14,0,0,1,69.6,8.8a3.822,3.822,0,0,1,.878,2.673,3.761,3.761,0,0,1-.947,2.683A3.317,3.317,0,0,1,66.992,15.164Zm.082-6.385a2.132,2.132,0,0,0-1.709.735,3.018,3.018,0,0,0-.629,2.027,2.854,2.854,0,0,0,.636,1.962,2.161,2.161,0,0,0,1.7.718,2.049,2.049,0,0,0,1.671-.7,3.055,3.055,0,0,0,.584-2,3.108,3.108,0,0,0-.584-2.023A2.04,2.04,0,0,0,67.074,8.779Zm4.771,5.968v-1.2a3.318,3.318,0,0,0,2.017.677q1.477,0,1.477-.984a.854.854,0,0,0-.126-.475,1.26,1.26,0,0,0-.342-.345,2.631,2.631,0,0,0-.506-.27q-.291-.12-.625-.25a8.056,8.056,0,0,1-.817-.373,2.468,2.468,0,0,1-.588-.424,1.577,1.577,0,0,1-.355-.537,1.9,1.9,0,0,1-.12-.7,1.673,1.673,0,0,1,.226-.872,2,2,0,0,1,.6-.636,2.805,2.805,0,0,1,.858-.386,3.805,3.805,0,0,1,.995-.13,4.016,4.016,0,0,1,1.627.314V9.285a3.171,3.171,0,0,0-1.777-.506,2.078,2.078,0,0,0-.567.072,1.389,1.389,0,0,0-.434.2.932.932,0,0,0-.28.311.819.819,0,0,0-.1.4.959.959,0,0,0,.1.458,1.008,1.008,0,0,0,.291.328,2.221,2.221,0,0,0,.465.26q.273.116.622.253a8.657,8.657,0,0,1,.834.366,2.86,2.86,0,0,1,.629.424,1.656,1.656,0,0,1,.4.543,1.753,1.753,0,0,1,.14.731,1.725,1.725,0,0,1-.229.9,1.963,1.963,0,0,1-.612.636,2.8,2.8,0,0,1-.882.376,4.354,4.354,0,0,1-1.046.123A3.971,3.971,0,0,1,71.846,14.747Zm9.775,0v-1.2a3.318,3.318,0,0,0,2.017.677q1.477,0,1.477-.984a.854.854,0,0,0-.126-.475,1.26,1.26,0,0,0-.342-.345,2.631,2.631,0,0,0-.506-.27q-.291-.12-.625-.25a8.056,8.056,0,0,1-.817-.373,2.468,2.468,0,0,1-.588-.424,1.577,1.577,0,0,1-.355-.537,1.9,1.9,0,0,1-.12-.7,1.673,1.673,0,0,1,.226-.872,2,2,0,0,1,.6-.636,2.805,2.805,0,0,1,.858-.386,3.805,3.805,0,0,1,.995-.13,4.016,4.016,0,0,1,1.627.314V9.285a3.171,3.171,0,0,0-1.777-.506,2.078,2.078,0,0,0-.567.072,1.389,1.389,0,0,0-.434.2.932.932,0,0,0-.28.311.819.819,0,0,0-.1.4.959.959,0,0,0,.1.458,1.008,1.008,0,0,0,.291.328,2.221,2.221,0,0,0,.465.26q.273.116.622.253a8.657,8.657,0,0,1,.834.366,2.86,2.86,0,0,1,.629.424,1.656,1.656,0,0,1,.4.543,1.753,1.753,0,0,1,.14.731,1.725,1.725,0,0,1-.229.9,1.963,1.963,0,0,1-.612.636,2.8,2.8,0,0,1-.882.376,4.354,4.354,0,0,1-1.046.123A3.971,3.971,0,0,1,81.621,14.747Zm9.29.417a3.247,3.247,0,0,1-2.478-.981,3.633,3.633,0,0,1-.926-2.6,3.785,3.785,0,0,1,.964-2.755,3.465,3.465,0,0,1,2.6-.991,3.14,3.14,0,0,1,2.444.964,3.822,3.822,0,0,1,.878,2.673,3.761,3.761,0,0,1-.947,2.683A3.317,3.317,0,0,1,90.911,15.164Zm.082-6.385a2.132,2.132,0,0,0-1.709.735,3.018,3.018,0,0,0-.629,2.027,2.854,2.854,0,0,0,.636,1.962,2.161,2.161,0,0,0,1.7.718,2.049,2.049,0,0,0,1.671-.7,3.055,3.055,0,0,0,.584-2,3.108,3.108,0,0,0-.584-2.023A2.04,2.04,0,0,0,90.993,8.779Zm6.344,5.209H97.31V15H96.188V4.637H97.31V9.23h.027a2.651,2.651,0,0,1,2.42-1.395,2.566,2.566,0,0,1,2.109.94,3.881,3.881,0,0,1,.762,2.519,4.339,4.339,0,0,1-.854,2.813,2.845,2.845,0,0,1-2.338,1.056A2.3,2.3,0,0,1,97.337,13.988Zm-.027-2.823v.978a2.081,2.081,0,0,0,.564,1.473,2.012,2.012,0,0,0,3.028-.174,3.575,3.575,0,0,0,.578-2.167,2.822,2.822,0,0,0-.54-1.832,1.787,1.787,0,0,0-1.463-.663,1.986,1.986,0,0,0-1.572.68A2.5,2.5,0,0,0,97.31,11.165Zm10.76-2.03a1.371,1.371,0,0,0-.848-.226,1.431,1.431,0,0,0-1.2.677,3.129,3.129,0,0,0-.482,1.846V15h-1.121V8h1.121V9.442h.027a2.444,2.444,0,0,1,.731-1.152,1.668,1.668,0,0,1,1.1-.414,1.83,1.83,0,0,1,.67.1Zm6.843,2.646H109.97a2.618,2.618,0,0,0,.629,1.8,2.168,2.168,0,0,0,1.654.636,3.439,3.439,0,0,0,2.174-.779v1.053a4.063,4.063,0,0,1-2.44.67,2.959,2.959,0,0,1-2.331-.954,3.9,3.9,0,0,1-.848-2.683,3.828,3.828,0,0,1,.926-2.663,2.97,2.97,0,0,1,2.3-1.029,2.632,2.632,0,0,1,2.126.889,3.705,3.705,0,0,1,.752,2.468Zm-1.148-.95a2.281,2.281,0,0,0-.468-1.511,1.6,1.6,0,0,0-1.282-.54,1.811,1.811,0,0,0-1.347.567,2.575,2.575,0,0,0-.684,1.483Zm6.255,3.917v-1.2a3.318,3.318,0,0,0,2.017.677q1.477,0,1.477-.984a.854.854,0,0,0-.126-.475,1.26,1.26,0,0,0-.342-.345,2.631,2.631,0,0,0-.506-.27q-.291-.12-.625-.25a8.056,8.056,0,0,1-.817-.373,2.468,2.468,0,0,1-.588-.424,1.577,1.577,0,0,1-.355-.537,1.9,1.9,0,0,1-.12-.7,1.673,1.673,0,0,1,.226-.872,2,2,0,0,1,.6-.636,2.805,2.805,0,0,1,.858-.386,3.805,3.805,0,0,1,.995-.13,4.016,4.016,0,0,1,1.627.314V9.285a3.171,3.171,0,0,0-1.777-.506,2.078,2.078,0,0,0-.567.072,1.389,1.389,0,0,0-.434.2.932.932,0,0,0-.28.311.819.819,0,0,0-.1.4.959.959,0,0,0,.1.458,1.008,1.008,0,0,0,.291.328,2.221,2.221,0,0,0,.465.26q.273.116.622.253a8.657,8.657,0,0,1,.834.366,2.86,2.86,0,0,1,.629.424,1.656,1.656,0,0,1,.4.543,1.753,1.753,0,0,1,.14.731,1.725,1.725,0,0,1-.229.9,1.963,1.963,0,0,1-.612.636,2.8,2.8,0,0,1-.882.376,4.354,4.354,0,0,1-1.046.123A3.971,3.971,0,0,1,120.019,14.747Zm9.29.417a3.247,3.247,0,0,1-2.478-.981,3.633,3.633,0,0,1-.926-2.6,3.785,3.785,0,0,1,.964-2.755,3.465,3.465,0,0,1,2.6-.991,3.14,3.14,0,0,1,2.444.964,3.822,3.822,0,0,1,.878,2.673,3.761,3.761,0,0,1-.947,2.683A3.317,3.317,0,0,1,129.309,15.164Zm.082-6.385a2.132,2.132,0,0,0-1.709.735,3.018,3.018,0,0,0-.629,2.027,2.854,2.854,0,0,0,.636,1.962,2.161,2.161,0,0,0,1.7.718,2.049,2.049,0,0,0,1.671-.7,3.055,3.055,0,0,0,.584-2,3.108,3.108,0,0,0-.584-2.023A2.04,2.04,0,0,0,129.391,8.779Zm4.771,5.968v-1.2a3.318,3.318,0,0,0,2.017.677q1.477,0,1.477-.984a.854.854,0,0,0-.126-.475,1.26,1.26,0,0,0-.342-.345,2.631,2.631,0,0,0-.506-.27q-.291-.12-.625-.25a8.056,8.056,0,0,1-.817-.373,2.468,2.468,0,0,1-.588-.424,1.577,1.577,0,0,1-.355-.537,1.9,1.9,0,0,1-.12-.7,1.673,1.673,0,0,1,.226-.872,2,2,0,0,1,.6-.636,2.805,2.805,0,0,1,.858-.386,3.805,3.805,0,0,1,.995-.13,4.016,4.016,0,0,1,1.627.314V9.285a3.171,3.171,0,0,0-1.777-.506,2.078,2.078,0,0,0-.567.072,1.389,1.389,0,0,0-.434.2.932.932,0,0,0-.28.311.819.819,0,0,0-.1.4.959.959,0,0,0,.1.458,1.008,1.008,0,0,0,.291.328,2.221,2.221,0,0,0,.465.26q.273.116.622.253a8.658,8.658,0,0,1,.834.366,2.86,2.86,0,0,1,.629.424,1.656,1.656,0,0,1,.4.543,1.753,1.753,0,0,1,.14.731,1.725,1.725,0,0,1-.229.9,1.963,1.963,0,0,1-.612.636,2.8,2.8,0,0,1-.882.376,4.354,4.354,0,0,1-1.046.123A3.971,3.971,0,0,1,134.162,14.747Zm9.611.185a2.162,2.162,0,0,1-1.046.219q-1.839,0-1.839-2.051V8.957h-1.2V8h1.2V6.291l1.121-.362V8h1.764v.957H142.01V12.9a1.635,1.635,0,0,0,.239,1,.955.955,0,0,0,.793.3,1.179,1.179,0,0,0,.731-.232ZM150.9,11.78h-4.942a2.618,2.618,0,0,0,.629,1.8,2.168,2.168,0,0,0,1.654.636,3.439,3.439,0,0,0,2.174-.779v1.053a4.063,4.063,0,0,1-2.44.67,2.959,2.959,0,0,1-2.331-.954,3.9,3.9,0,0,1-.848-2.683,3.828,3.828,0,0,1,.926-2.663,2.97,2.97,0,0,1,2.3-1.029,2.632,2.632,0,0,1,2.126.889,3.705,3.705,0,0,1,.752,2.468Zm-1.148-.95a2.281,2.281,0,0,0-.468-1.511A1.6,1.6,0,0,0,148,8.779a1.811,1.811,0,0,0-1.347.567,2.575,2.575,0,0,0-.684,1.483ZM158.4,15h-1.121V11.008q0-2.229-1.627-2.229a1.765,1.765,0,0,0-1.391.632,2.344,2.344,0,0,0-.55,1.6V15h-1.121V8h1.121V9.162h.027a2.526,2.526,0,0,1,2.3-1.326,2.142,2.142,0,0,1,1.757.742,3.3,3.3,0,0,1,.608,2.143Zm2.687-8.777a.71.71,0,0,1-.513-.205.692.692,0,0,1-.212-.52.718.718,0,0,1,.725-.731.724.724,0,0,1,.523.208.73.73,0,0,1,0,1.036A.718.718,0,0,1,161.089,6.223ZM161.636,15h-1.121V8h1.121Zm3.418-1.012h-.027V15h-1.121V4.637h1.121V9.23h.027a2.651,2.651,0,0,1,2.42-1.395,2.566,2.566,0,0,1,2.109.94,3.881,3.881,0,0,1,.762,2.519,4.339,4.339,0,0,1-.854,2.813,2.845,2.845,0,0,1-2.338,1.056A2.3,2.3,0,0,1,165.054,13.988Zm-.027-2.823v.978a2.081,2.081,0,0,0,.564,1.473,2.012,2.012,0,0,0,3.028-.174,3.575,3.575,0,0,0,.578-2.167,2.822,2.822,0,0,0-.54-1.832,1.787,1.787,0,0,0-1.463-.663,1.986,1.986,0,0,0-1.572.68A2.5,2.5,0,0,0,165.026,11.165Zm7.684-4.942a.71.71,0,0,1-.513-.205.692.692,0,0,1-.212-.52.718.718,0,0,1,.725-.731.724.724,0,0,1,.523.208.73.73,0,0,1,0,1.036A.718.718,0,0,1,172.71,6.223ZM173.257,15h-1.121V8h1.121Zm3.391,0h-1.121V4.637h1.121Zm2.844-8.777a.71.71,0,0,1-.513-.205.692.692,0,0,1-.212-.52.718.718,0,0,1,.725-.731.724.724,0,0,1,.523.208.73.73,0,0,1,0,1.036A.718.718,0,0,1,179.491,6.223ZM180.038,15h-1.121V8h1.121Zm8.244,0h-1.121V13.811h-.027a2.588,2.588,0,0,1-2.406,1.354,2.615,2.615,0,0,1-2.109-.94,3.856,3.856,0,0,1-.79-2.56,4.2,4.2,0,0,1,.875-2.782,2.886,2.886,0,0,1,2.331-1.046,2.244,2.244,0,0,1,2.1,1.135h.027V4.637h1.121Zm-1.121-3.165V10.8a2,2,0,0,0-.561-1.436,1.88,1.88,0,0,0-1.422-.588,1.936,1.936,0,0,0-1.613.752,3.3,3.3,0,0,0-.588,2.078,2.964,2.964,0,0,0,.564,1.911,1.843,1.843,0,0,0,1.514.7,1.915,1.915,0,0,0,1.521-.677A2.521,2.521,0,0,0,187.161,11.835Zm8.4,3.165h-1.121V13.906h-.027a2.347,2.347,0,0,1-2.153,1.258,2.3,2.3,0,0,1-1.637-.554,1.918,1.918,0,0,1-.591-1.47q0-1.962,2.311-2.283l2.1-.294q0-1.784-1.442-1.784a3.446,3.446,0,0,0-2.283.861V8.492a4.338,4.338,0,0,1,2.379-.656q2.468,0,2.468,2.611Zm-1.121-3.541-1.688.232a2.741,2.741,0,0,0-1.176.386,1.114,1.114,0,0,0-.4.981,1.068,1.068,0,0,0,.366.837,1.413,1.413,0,0,0,.974.325,1.8,1.8,0,0,0,1.377-.584,2.088,2.088,0,0,0,.543-1.48ZM203.649,15h-1.121V13.811H202.5a2.588,2.588,0,0,1-2.406,1.354,2.615,2.615,0,0,1-2.109-.94,3.856,3.856,0,0,1-.79-2.56,4.2,4.2,0,0,1,.875-2.782A2.886,2.886,0,0,1,200.4,7.836a2.244,2.244,0,0,1,2.1,1.135h.027V4.637h1.121Zm-1.121-3.165V10.8a2,2,0,0,0-.561-1.436,1.88,1.88,0,0,0-1.422-.588,1.936,1.936,0,0,0-1.613.752,3.3,3.3,0,0,0-.588,2.078,2.964,2.964,0,0,0,.564,1.911,1.843,1.843,0,0,0,1.514.7,1.915,1.915,0,0,0,1.521-.677A2.521,2.521,0,0,0,202.528,11.835Z" transform="translate(3176 3030.503)" fill="#00223d"/>
      <path id="Trazado_964795" data-name="Trazado 964795" d="M8.012,11.377H5.25v2.755H4.341V11.377H1.586v-.916H4.341V7.706H5.25v2.755H8.012ZM14.239,14.6V13.25a2.629,2.629,0,0,0,.557.369,4.514,4.514,0,0,0,.684.277,5.442,5.442,0,0,0,.721.174,4.021,4.021,0,0,0,.67.062,2.624,2.624,0,0,0,1.583-.393,1.474,1.474,0,0,0,.349-1.822,1.964,1.964,0,0,0-.482-.537,4.782,4.782,0,0,0-.728-.465q-.42-.222-.906-.468-.513-.26-.957-.526a4.147,4.147,0,0,1-.772-.588,2.452,2.452,0,0,1-.516-.728,2.253,2.253,0,0,1-.188-.954,2.242,2.242,0,0,1,.294-1.166,2.521,2.521,0,0,1,.772-.817,3.5,3.5,0,0,1,1.09-.479,4.992,4.992,0,0,1,1.248-.157,4.781,4.781,0,0,1,2.112.349V6.674a3.829,3.829,0,0,0-2.229-.6,3.665,3.665,0,0,0-.752.079,2.124,2.124,0,0,0-.67.256,1.484,1.484,0,0,0-.479.458,1.216,1.216,0,0,0-.185.684,1.407,1.407,0,0,0,.14.649,1.592,1.592,0,0,0,.414.5,4.119,4.119,0,0,0,.667.438q.393.212.906.465t1,.547a4.562,4.562,0,0,1,.827.636,2.825,2.825,0,0,1,.564.772,2.171,2.171,0,0,1,.208.971,2.462,2.462,0,0,1-.284,1.227,2.328,2.328,0,0,1-.766.817,3.344,3.344,0,0,1-1.111.455,6.084,6.084,0,0,1-1.326.14,5.4,5.4,0,0,1-.574-.038q-.342-.038-.7-.109a5.69,5.69,0,0,1-.673-.178A2.1,2.1,0,0,1,14.239,14.6Zm13.405.4H26.523V13.893H26.5a2.3,2.3,0,0,1-2.16,1.271q-2.5,0-2.5-2.98V8h1.114v4.006q0,2.215,1.7,2.215a1.715,1.715,0,0,0,1.35-.6,2.315,2.315,0,0,0,.53-1.583V8h1.121Zm3.411-1.012h-.027V18.22H29.907V8h1.121V9.23h.027a2.651,2.651,0,0,1,2.42-1.395,2.563,2.563,0,0,1,2.112.94,3.893,3.893,0,0,1,.759,2.519,4.339,4.339,0,0,1-.854,2.813,2.845,2.845,0,0,1-2.338,1.056A2.342,2.342,0,0,1,31.056,13.988Zm-.027-2.823v.978a2.081,2.081,0,0,0,.564,1.473,2.012,2.012,0,0,0,3.028-.174,3.575,3.575,0,0,0,.578-2.167,2.822,2.822,0,0,0-.54-1.832A1.787,1.787,0,0,0,33.2,8.779a1.986,1.986,0,0,0-1.572.68A2.5,2.5,0,0,0,31.028,11.165ZM43.8,15H42.677V13.893h-.027a2.3,2.3,0,0,1-2.16,1.271q-2.5,0-2.5-2.98V8H39.1v4.006q0,2.215,1.7,2.215a1.715,1.715,0,0,0,1.35-.6,2.315,2.315,0,0,0,.53-1.583V8H43.8Zm7.889-3.22H46.744a2.618,2.618,0,0,0,.629,1.8,2.168,2.168,0,0,0,1.654.636,3.439,3.439,0,0,0,2.174-.779v1.053a4.063,4.063,0,0,1-2.44.67,2.959,2.959,0,0,1-2.331-.954,3.9,3.9,0,0,1-.848-2.683,3.828,3.828,0,0,1,.926-2.663,2.97,2.97,0,0,1,2.3-1.029,2.632,2.632,0,0,1,2.126.889,3.705,3.705,0,0,1,.752,2.468Zm-1.148-.95a2.281,2.281,0,0,0-.468-1.511,1.6,1.6,0,0,0-1.282-.54,1.811,1.811,0,0,0-1.347.567,2.575,2.575,0,0,0-.684,1.483Zm2.42,3.917v-1.2a3.318,3.318,0,0,0,2.017.677q1.477,0,1.477-.984a.854.854,0,0,0-.126-.475,1.26,1.26,0,0,0-.342-.345,2.631,2.631,0,0,0-.506-.27q-.291-.12-.625-.25a8.056,8.056,0,0,1-.817-.373,2.468,2.468,0,0,1-.588-.424,1.577,1.577,0,0,1-.355-.537,1.9,1.9,0,0,1-.12-.7,1.673,1.673,0,0,1,.226-.872,2,2,0,0,1,.6-.636,2.805,2.805,0,0,1,.858-.386,3.805,3.805,0,0,1,.995-.13,4.016,4.016,0,0,1,1.627.314V9.285A3.171,3.171,0,0,0,55.5,8.779a2.078,2.078,0,0,0-.567.072,1.389,1.389,0,0,0-.434.2.932.932,0,0,0-.28.311.819.819,0,0,0-.1.4.959.959,0,0,0,.1.458,1.008,1.008,0,0,0,.291.328,2.221,2.221,0,0,0,.465.26q.273.116.622.253a8.658,8.658,0,0,1,.834.366,2.86,2.86,0,0,1,.629.424,1.656,1.656,0,0,1,.4.543,1.753,1.753,0,0,1,.14.731,1.725,1.725,0,0,1-.229.9,1.963,1.963,0,0,1-.612.636,2.8,2.8,0,0,1-.882.376,4.354,4.354,0,0,1-1.046.123A3.971,3.971,0,0,1,52.958,14.747Zm9.611.185a2.161,2.161,0,0,1-1.046.219q-1.839,0-1.839-2.051V8.957h-1.2V8h1.2V6.291l1.121-.362V8h1.764v.957H60.806V12.9a1.635,1.635,0,0,0,.239,1,.955.955,0,0,0,.793.3,1.179,1.179,0,0,0,.731-.232Zm4.423.232a3.247,3.247,0,0,1-2.478-.981,3.634,3.634,0,0,1-.926-2.6,3.785,3.785,0,0,1,.964-2.755,3.465,3.465,0,0,1,2.6-.991A3.14,3.14,0,0,1,69.6,8.8a3.822,3.822,0,0,1,.878,2.673,3.761,3.761,0,0,1-.947,2.683A3.317,3.317,0,0,1,66.992,15.164Zm.082-6.385a2.132,2.132,0,0,0-1.709.735,3.018,3.018,0,0,0-.629,2.027,2.854,2.854,0,0,0,.636,1.962,2.161,2.161,0,0,0,1.7.718,2.049,2.049,0,0,0,1.671-.7,3.055,3.055,0,0,0,.584-2,3.108,3.108,0,0,0-.584-2.023A2.04,2.04,0,0,0,67.074,8.779Zm4.771,5.968v-1.2a3.318,3.318,0,0,0,2.017.677q1.477,0,1.477-.984a.854.854,0,0,0-.126-.475,1.26,1.26,0,0,0-.342-.345,2.631,2.631,0,0,0-.506-.27q-.291-.12-.625-.25a8.056,8.056,0,0,1-.817-.373,2.468,2.468,0,0,1-.588-.424,1.577,1.577,0,0,1-.355-.537,1.9,1.9,0,0,1-.12-.7,1.673,1.673,0,0,1,.226-.872,2,2,0,0,1,.6-.636,2.805,2.805,0,0,1,.858-.386,3.805,3.805,0,0,1,.995-.13,4.016,4.016,0,0,1,1.627.314V9.285a3.171,3.171,0,0,0-1.777-.506,2.078,2.078,0,0,0-.567.072,1.389,1.389,0,0,0-.434.2.932.932,0,0,0-.28.311.819.819,0,0,0-.1.4.959.959,0,0,0,.1.458,1.008,1.008,0,0,0,.291.328,2.221,2.221,0,0,0,.465.26q.273.116.622.253a8.657,8.657,0,0,1,.834.366,2.86,2.86,0,0,1,.629.424,1.656,1.656,0,0,1,.4.543,1.753,1.753,0,0,1,.14.731,1.725,1.725,0,0,1-.229.9,1.963,1.963,0,0,1-.612.636,2.8,2.8,0,0,1-.882.376,4.354,4.354,0,0,1-1.046.123A3.971,3.971,0,0,1,71.846,14.747Zm11.5-3.452V15H82.2V5.2h2.693a3.555,3.555,0,0,1,2.437.766,2.734,2.734,0,0,1,.865,2.16,2.971,2.971,0,0,1-.96,2.283,3.67,3.67,0,0,1-2.594.889Zm0-5.059v4.02h1.2a2.69,2.69,0,0,0,1.815-.543,1.924,1.924,0,0,0,.625-1.535q0-1.941-2.3-1.941Zm10.192,2.9a1.371,1.371,0,0,0-.848-.226,1.431,1.431,0,0,0-1.2.677,3.129,3.129,0,0,0-.482,1.846V15H89.886V8h1.121V9.442h.027a2.444,2.444,0,0,1,.731-1.152,1.668,1.668,0,0,1,1.1-.414,1.83,1.83,0,0,1,.67.1Zm4.143,6.029a3.247,3.247,0,0,1-2.478-.981,3.633,3.633,0,0,1-.926-2.6,3.785,3.785,0,0,1,.964-2.755,3.465,3.465,0,0,1,2.6-.991,3.14,3.14,0,0,1,2.444.964,3.822,3.822,0,0,1,.878,2.673,3.761,3.761,0,0,1-.947,2.683A3.317,3.317,0,0,1,97.679,15.164Zm.082-6.385a2.132,2.132,0,0,0-1.709.735,3.018,3.018,0,0,0-.629,2.027,2.854,2.854,0,0,0,.636,1.962,2.161,2.161,0,0,0,1.7.718,2.049,2.049,0,0,0,1.671-.7,3.055,3.055,0,0,0,.584-2,3.108,3.108,0,0,0-.584-2.023A2.04,2.04,0,0,0,97.761,8.779Zm6.344,5.209h-.027V18.22h-1.121V8h1.121V9.23h.027a2.651,2.651,0,0,1,2.42-1.395,2.563,2.563,0,0,1,2.112.94,3.893,3.893,0,0,1,.759,2.519,4.339,4.339,0,0,1-.854,2.813,2.845,2.845,0,0,1-2.338,1.056A2.342,2.342,0,0,1,104.1,13.988Zm-.027-2.823v.978a2.081,2.081,0,0,0,.564,1.473,2.012,2.012,0,0,0,3.028-.174,3.575,3.575,0,0,0,.578-2.167,2.822,2.822,0,0,0-.54-1.832,1.787,1.787,0,0,0-1.463-.663,1.986,1.986,0,0,0-1.572.68A2.5,2.5,0,0,0,104.077,11.165Zm10.035,4a3.247,3.247,0,0,1-2.478-.981,3.633,3.633,0,0,1-.926-2.6,3.785,3.785,0,0,1,.964-2.755,3.465,3.465,0,0,1,2.6-.991,3.14,3.14,0,0,1,2.444.964,3.822,3.822,0,0,1,.878,2.673,3.761,3.761,0,0,1-.947,2.683A3.317,3.317,0,0,1,114.112,15.164Zm.082-6.385a2.132,2.132,0,0,0-1.709.735,3.018,3.018,0,0,0-.629,2.027,2.854,2.854,0,0,0,.636,1.962,2.161,2.161,0,0,0,1.7.718,2.049,2.049,0,0,0,1.671-.7,3.055,3.055,0,0,0,.584-2,3.108,3.108,0,0,0-.584-2.023A2.04,2.04,0,0,0,114.194,8.779Zm1.641-4.348-1.791,2.242h-.868L114.7,4.432Zm3.131,10.315v-1.2a3.318,3.318,0,0,0,2.017.677q1.477,0,1.477-.984a.854.854,0,0,0-.126-.475,1.26,1.26,0,0,0-.342-.345,2.631,2.631,0,0,0-.506-.27q-.291-.12-.625-.25a8.056,8.056,0,0,1-.817-.373,2.468,2.468,0,0,1-.588-.424,1.577,1.577,0,0,1-.355-.537,1.9,1.9,0,0,1-.12-.7,1.673,1.673,0,0,1,.226-.872,2,2,0,0,1,.6-.636,2.805,2.805,0,0,1,.858-.386,3.805,3.805,0,0,1,.995-.13,4.016,4.016,0,0,1,1.627.314V9.285a3.171,3.171,0,0,0-1.777-.506,2.078,2.078,0,0,0-.567.072,1.389,1.389,0,0,0-.434.2.932.932,0,0,0-.28.311.819.819,0,0,0-.1.4.959.959,0,0,0,.1.458,1.008,1.008,0,0,0,.291.328,2.221,2.221,0,0,0,.465.26q.273.116.622.253a8.657,8.657,0,0,1,.834.366,2.86,2.86,0,0,1,.629.424,1.656,1.656,0,0,1,.4.543,1.753,1.753,0,0,1,.14.731,1.725,1.725,0,0,1-.229.9,1.963,1.963,0,0,1-.612.636,2.8,2.8,0,0,1-.882.376,4.354,4.354,0,0,1-1.046.123A3.971,3.971,0,0,1,118.966,14.747ZM125.9,6.223a.71.71,0,0,1-.513-.205.692.692,0,0,1-.212-.52.718.718,0,0,1,.725-.731.724.724,0,0,1,.523.208.73.73,0,0,1,0,1.036A.718.718,0,0,1,125.9,6.223ZM126.451,15H125.33V8h1.121Zm5.517-.068a2.162,2.162,0,0,1-1.046.219q-1.839,0-1.839-2.051V8.957h-1.2V8h1.2V6.291l1.121-.362V8h1.764v.957H130.2V12.9a1.635,1.635,0,0,0,.239,1,.955.955,0,0,0,.793.3,1.179,1.179,0,0,0,.731-.232Zm4.423.232a3.247,3.247,0,0,1-2.478-.981,3.634,3.634,0,0,1-.926-2.6,3.785,3.785,0,0,1,.964-2.755,3.465,3.465,0,0,1,2.6-.991A3.14,3.14,0,0,1,139,8.8a3.822,3.822,0,0,1,.878,2.673,3.761,3.761,0,0,1-.947,2.683A3.317,3.317,0,0,1,136.391,15.164Zm.082-6.385a2.132,2.132,0,0,0-1.709.735,3.018,3.018,0,0,0-.629,2.027,2.854,2.854,0,0,0,.636,1.962,2.161,2.161,0,0,0,1.7.718,2.049,2.049,0,0,0,1.671-.7,3.055,3.055,0,0,0,.584-2,3.108,3.108,0,0,0-.584-2.023A2.04,2.04,0,0,0,136.473,8.779Zm12.612,2.762h-3.732v-.882h3.732Zm10.979-5.3h-3.828V9.627h3.541v1.032h-3.541V15h-1.148V5.2h4.977Zm2.283-.014a.71.71,0,0,1-.513-.205.692.692,0,0,1-.212-.52.718.718,0,0,1,.725-.731.724.724,0,0,1,.523.208.73.73,0,0,1,0,1.036A.718.718,0,0,1,162.347,6.223ZM162.894,15h-1.121V8h1.121Zm8.08,0h-1.121V11.008q0-2.229-1.627-2.229a1.765,1.765,0,0,0-1.391.632,2.344,2.344,0,0,0-.55,1.6V15h-1.121V8h1.121V9.162h.027a2.526,2.526,0,0,1,2.3-1.326,2.142,2.142,0,0,1,1.757.742,3.3,3.3,0,0,1,.608,2.143Z" transform="translate(3176 3150.788)" fill="#00223d"/>
      <path id="Trazado_964797" data-name="Trazado 964797" d="M8.012,11.377H5.25v2.755H4.341V11.377H1.586v-.916H4.341V7.706H5.25v2.755H8.012ZM14.239,14.6V13.25a2.629,2.629,0,0,0,.557.369,4.514,4.514,0,0,0,.684.277,5.442,5.442,0,0,0,.721.174,4.021,4.021,0,0,0,.67.062,2.624,2.624,0,0,0,1.583-.393,1.474,1.474,0,0,0,.349-1.822,1.964,1.964,0,0,0-.482-.537,4.782,4.782,0,0,0-.728-.465q-.42-.222-.906-.468-.513-.26-.957-.526a4.147,4.147,0,0,1-.772-.588,2.452,2.452,0,0,1-.516-.728,2.253,2.253,0,0,1-.188-.954,2.242,2.242,0,0,1,.294-1.166,2.521,2.521,0,0,1,.772-.817,3.5,3.5,0,0,1,1.09-.479,4.992,4.992,0,0,1,1.248-.157,4.781,4.781,0,0,1,2.112.349V6.674a3.829,3.829,0,0,0-2.229-.6,3.665,3.665,0,0,0-.752.079,2.124,2.124,0,0,0-.67.256,1.484,1.484,0,0,0-.479.458,1.216,1.216,0,0,0-.185.684,1.407,1.407,0,0,0,.14.649,1.592,1.592,0,0,0,.414.5,4.119,4.119,0,0,0,.667.438q.393.212.906.465t1,.547a4.562,4.562,0,0,1,.827.636,2.825,2.825,0,0,1,.564.772,2.171,2.171,0,0,1,.208.971,2.462,2.462,0,0,1-.284,1.227,2.328,2.328,0,0,1-.766.817,3.344,3.344,0,0,1-1.111.455,6.084,6.084,0,0,1-1.326.14,5.4,5.4,0,0,1-.574-.038q-.342-.038-.7-.109a5.69,5.69,0,0,1-.673-.178A2.1,2.1,0,0,1,14.239,14.6Zm13.405.4H26.523V13.893H26.5a2.3,2.3,0,0,1-2.16,1.271q-2.5,0-2.5-2.98V8h1.114v4.006q0,2.215,1.7,2.215a1.715,1.715,0,0,0,1.35-.6,2.315,2.315,0,0,0,.53-1.583V8h1.121Zm3.411-1.012h-.027V18.22H29.907V8h1.121V9.23h.027a2.651,2.651,0,0,1,2.42-1.395,2.563,2.563,0,0,1,2.112.94,3.893,3.893,0,0,1,.759,2.519,4.339,4.339,0,0,1-.854,2.813,2.845,2.845,0,0,1-2.338,1.056A2.342,2.342,0,0,1,31.056,13.988Zm-.027-2.823v.978a2.081,2.081,0,0,0,.564,1.473,2.012,2.012,0,0,0,3.028-.174,3.575,3.575,0,0,0,.578-2.167,2.822,2.822,0,0,0-.54-1.832A1.787,1.787,0,0,0,33.2,8.779a1.986,1.986,0,0,0-1.572.68A2.5,2.5,0,0,0,31.028,11.165ZM43.8,15H42.677V13.893h-.027a2.3,2.3,0,0,1-2.16,1.271q-2.5,0-2.5-2.98V8H39.1v4.006q0,2.215,1.7,2.215a1.715,1.715,0,0,0,1.35-.6,2.315,2.315,0,0,0,.53-1.583V8H43.8Zm7.889-3.22H46.744a2.618,2.618,0,0,0,.629,1.8,2.168,2.168,0,0,0,1.654.636,3.439,3.439,0,0,0,2.174-.779v1.053a4.063,4.063,0,0,1-2.44.67,2.959,2.959,0,0,1-2.331-.954,3.9,3.9,0,0,1-.848-2.683,3.828,3.828,0,0,1,.926-2.663,2.97,2.97,0,0,1,2.3-1.029,2.632,2.632,0,0,1,2.126.889,3.705,3.705,0,0,1,.752,2.468Zm-1.148-.95a2.281,2.281,0,0,0-.468-1.511,1.6,1.6,0,0,0-1.282-.54,1.811,1.811,0,0,0-1.347.567,2.575,2.575,0,0,0-.684,1.483Zm2.42,3.917v-1.2a3.318,3.318,0,0,0,2.017.677q1.477,0,1.477-.984a.854.854,0,0,0-.126-.475,1.26,1.26,0,0,0-.342-.345,2.631,2.631,0,0,0-.506-.27q-.291-.12-.625-.25a8.056,8.056,0,0,1-.817-.373,2.468,2.468,0,0,1-.588-.424,1.577,1.577,0,0,1-.355-.537,1.9,1.9,0,0,1-.12-.7,1.673,1.673,0,0,1,.226-.872,2,2,0,0,1,.6-.636,2.805,2.805,0,0,1,.858-.386,3.805,3.805,0,0,1,.995-.13,4.016,4.016,0,0,1,1.627.314V9.285A3.171,3.171,0,0,0,55.5,8.779a2.078,2.078,0,0,0-.567.072,1.389,1.389,0,0,0-.434.2.932.932,0,0,0-.28.311.819.819,0,0,0-.1.4.959.959,0,0,0,.1.458,1.008,1.008,0,0,0,.291.328,2.221,2.221,0,0,0,.465.26q.273.116.622.253a8.658,8.658,0,0,1,.834.366,2.86,2.86,0,0,1,.629.424,1.656,1.656,0,0,1,.4.543,1.753,1.753,0,0,1,.14.731,1.725,1.725,0,0,1-.229.9,1.963,1.963,0,0,1-.612.636,2.8,2.8,0,0,1-.882.376,4.354,4.354,0,0,1-1.046.123A3.971,3.971,0,0,1,52.958,14.747Zm9.611.185a2.161,2.161,0,0,1-1.046.219q-1.839,0-1.839-2.051V8.957h-1.2V8h1.2V6.291l1.121-.362V8h1.764v.957H60.806V12.9a1.635,1.635,0,0,0,.239,1,.955.955,0,0,0,.793.3,1.179,1.179,0,0,0,.731-.232Zm4.423.232a3.247,3.247,0,0,1-2.478-.981,3.634,3.634,0,0,1-.926-2.6,3.785,3.785,0,0,1,.964-2.755,3.465,3.465,0,0,1,2.6-.991A3.14,3.14,0,0,1,69.6,8.8a3.822,3.822,0,0,1,.878,2.673,3.761,3.761,0,0,1-.947,2.683A3.317,3.317,0,0,1,66.992,15.164Zm.082-6.385a2.132,2.132,0,0,0-1.709.735,3.018,3.018,0,0,0-.629,2.027,2.854,2.854,0,0,0,.636,1.962,2.161,2.161,0,0,0,1.7.718,2.049,2.049,0,0,0,1.671-.7,3.055,3.055,0,0,0,.584-2,3.108,3.108,0,0,0-.584-2.023A2.04,2.04,0,0,0,67.074,8.779Zm4.771,5.968v-1.2a3.318,3.318,0,0,0,2.017.677q1.477,0,1.477-.984a.854.854,0,0,0-.126-.475,1.26,1.26,0,0,0-.342-.345,2.631,2.631,0,0,0-.506-.27q-.291-.12-.625-.25a8.056,8.056,0,0,1-.817-.373,2.468,2.468,0,0,1-.588-.424,1.577,1.577,0,0,1-.355-.537,1.9,1.9,0,0,1-.12-.7,1.673,1.673,0,0,1,.226-.872,2,2,0,0,1,.6-.636,2.805,2.805,0,0,1,.858-.386,3.805,3.805,0,0,1,.995-.13,4.016,4.016,0,0,1,1.627.314V9.285a3.171,3.171,0,0,0-1.777-.506,2.078,2.078,0,0,0-.567.072,1.389,1.389,0,0,0-.434.2.932.932,0,0,0-.28.311.819.819,0,0,0-.1.4.959.959,0,0,0,.1.458,1.008,1.008,0,0,0,.291.328,2.221,2.221,0,0,0,.465.26q.273.116.622.253a8.657,8.657,0,0,1,.834.366,2.86,2.86,0,0,1,.629.424,1.656,1.656,0,0,1,.4.543,1.753,1.753,0,0,1,.14.731,1.725,1.725,0,0,1-.229.9,1.963,1.963,0,0,1-.612.636,2.8,2.8,0,0,1-.882.376,4.354,4.354,0,0,1-1.046.123A3.971,3.971,0,0,1,71.846,14.747Zm17.021-.157a5.749,5.749,0,0,1-2.707.574,4.366,4.366,0,0,1-3.35-1.347,4.969,4.969,0,0,1-1.258-3.534,5.208,5.208,0,0,1,1.415-3.8,4.8,4.8,0,0,1,3.589-1.449,5.754,5.754,0,0,1,2.311.4V6.66a4.686,4.686,0,0,0-2.324-.588A3.566,3.566,0,0,0,83.805,7.2a4.249,4.249,0,0,0-1.049,3.015,4.043,4.043,0,0,0,.981,2.854,3.338,3.338,0,0,0,2.574,1.063,4.828,4.828,0,0,0,2.557-.656Zm4.771.574a3.247,3.247,0,0,1-2.478-.981,3.633,3.633,0,0,1-.926-2.6A3.785,3.785,0,0,1,91.2,8.827a3.465,3.465,0,0,1,2.6-.991,3.14,3.14,0,0,1,2.444.964,3.822,3.822,0,0,1,.878,2.673,3.761,3.761,0,0,1-.947,2.683A3.317,3.317,0,0,1,93.639,15.164Zm.082-6.385a2.132,2.132,0,0,0-1.709.735,3.018,3.018,0,0,0-.629,2.027,2.854,2.854,0,0,0,.636,1.962,2.161,2.161,0,0,0,1.7.718,2.049,2.049,0,0,0,1.671-.7,3.055,3.055,0,0,0,.584-2,3.108,3.108,0,0,0-.584-2.023A2.04,2.04,0,0,0,93.721,8.779ZM108.855,15h-1.121V10.98a3.032,3.032,0,0,0-.359-1.682,1.361,1.361,0,0,0-1.207-.52,1.494,1.494,0,0,0-1.22.656,2.511,2.511,0,0,0-.5,1.572V15h-1.121V10.844q0-2.064-1.593-2.064a1.475,1.475,0,0,0-1.217.619,2.557,2.557,0,0,0-.479,1.61V15H98.916V8h1.121V9.107h.027a2.378,2.378,0,0,1,2.174-1.271,2.022,2.022,0,0,1,1.982,1.449,2.5,2.5,0,0,1,2.324-1.449q2.311,0,2.311,2.851Zm3.268-1.012H112.1V18.22h-1.121V8H112.1V9.23h.027a2.651,2.651,0,0,1,2.42-1.395,2.563,2.563,0,0,1,2.112.94,3.893,3.893,0,0,1,.759,2.519,4.339,4.339,0,0,1-.854,2.813,2.845,2.845,0,0,1-2.338,1.056A2.342,2.342,0,0,1,112.123,13.988Zm-.027-2.823v.978a2.081,2.081,0,0,0,.564,1.473,2.012,2.012,0,0,0,3.028-.174,3.575,3.575,0,0,0,.578-2.167,2.822,2.822,0,0,0-.54-1.832,1.787,1.787,0,0,0-1.463-.663,1.986,1.986,0,0,0-1.572.68A2.5,2.5,0,0,0,112.1,11.165Zm10.035,4a3.247,3.247,0,0,1-2.478-.981,3.633,3.633,0,0,1-.926-2.6,3.785,3.785,0,0,1,.964-2.755,3.465,3.465,0,0,1,2.6-.991,3.14,3.14,0,0,1,2.444.964,3.822,3.822,0,0,1,.878,2.673,3.761,3.761,0,0,1-.947,2.683A3.317,3.317,0,0,1,122.131,15.164Zm.082-6.385a2.132,2.132,0,0,0-1.709.735,3.018,3.018,0,0,0-.629,2.027,2.854,2.854,0,0,0,.636,1.962,2.161,2.161,0,0,0,1.7.718,2.049,2.049,0,0,0,1.671-.7,3.055,3.055,0,0,0,.584-2,3.108,3.108,0,0,0-.584-2.023A2.04,2.04,0,0,0,122.213,8.779ZM133.219,15H132.1V11.008q0-2.229-1.627-2.229a1.765,1.765,0,0,0-1.391.632,2.344,2.344,0,0,0-.55,1.6V15h-1.121V8h1.121V9.162h.027a2.526,2.526,0,0,1,2.3-1.326,2.142,2.142,0,0,1,1.757.742,3.3,3.3,0,0,1,.608,2.143Zm7.738-3.22h-4.942a2.618,2.618,0,0,0,.629,1.8,2.168,2.168,0,0,0,1.654.636,3.439,3.439,0,0,0,2.174-.779v1.053a4.063,4.063,0,0,1-2.44.67,2.959,2.959,0,0,1-2.331-.954,3.9,3.9,0,0,1-.848-2.683,3.828,3.828,0,0,1,.926-2.663,2.97,2.97,0,0,1,2.3-1.029,2.632,2.632,0,0,1,2.126.889,3.705,3.705,0,0,1,.752,2.468Zm-1.148-.95a2.281,2.281,0,0,0-.468-1.511,1.6,1.6,0,0,0-1.282-.54,1.811,1.811,0,0,0-1.347.567,2.575,2.575,0,0,0-.684,1.483ZM148.463,15h-1.121V11.008q0-2.229-1.627-2.229a1.765,1.765,0,0,0-1.391.632,2.344,2.344,0,0,0-.55,1.6V15h-1.121V8h1.121V9.162h.027a2.526,2.526,0,0,1,2.3-1.326,2.142,2.142,0,0,1,1.757.742,3.3,3.3,0,0,1,.608,2.143Zm5.359-.068a2.162,2.162,0,0,1-1.046.219q-1.839,0-1.839-2.051V8.957h-1.2V8h1.2V6.291l1.121-.362V8h1.764v.957h-1.764V12.9a1.635,1.635,0,0,0,.239,1,.955.955,0,0,0,.793.3,1.179,1.179,0,0,0,.731-.232Zm7.123-3.151H156a2.618,2.618,0,0,0,.629,1.8,2.168,2.168,0,0,0,1.654.636,3.439,3.439,0,0,0,2.174-.779v1.053a4.063,4.063,0,0,1-2.44.67,2.959,2.959,0,0,1-2.331-.954,3.9,3.9,0,0,1-.848-2.683,3.828,3.828,0,0,1,.926-2.663,2.97,2.97,0,0,1,2.3-1.029,2.632,2.632,0,0,1,2.126.889,3.705,3.705,0,0,1,.752,2.468Zm-1.148-.95a2.281,2.281,0,0,0-.468-1.511,1.6,1.6,0,0,0-1.282-.54,1.811,1.811,0,0,0-1.347.567,2.575,2.575,0,0,0-.684,1.483Zm2.42,3.917v-1.2a3.318,3.318,0,0,0,2.017.677q1.477,0,1.477-.984a.854.854,0,0,0-.126-.475,1.26,1.26,0,0,0-.342-.345,2.631,2.631,0,0,0-.506-.27q-.291-.12-.625-.25a8.056,8.056,0,0,1-.817-.373,2.468,2.468,0,0,1-.588-.424,1.577,1.577,0,0,1-.355-.537,1.9,1.9,0,0,1-.12-.7,1.673,1.673,0,0,1,.226-.872,2,2,0,0,1,.6-.636,2.805,2.805,0,0,1,.858-.386,3.805,3.805,0,0,1,.995-.13,4.016,4.016,0,0,1,1.627.314V9.285a3.171,3.171,0,0,0-1.777-.506,2.078,2.078,0,0,0-.567.072,1.389,1.389,0,0,0-.434.2.932.932,0,0,0-.28.311.819.819,0,0,0-.1.4.959.959,0,0,0,.1.458,1.008,1.008,0,0,0,.291.328,2.221,2.221,0,0,0,.465.26q.273.116.622.253a8.658,8.658,0,0,1,.834.366,2.86,2.86,0,0,1,.629.424,1.656,1.656,0,0,1,.4.543,1.753,1.753,0,0,1,.14.731,1.725,1.725,0,0,1-.229.9,1.963,1.963,0,0,1-.612.636,2.8,2.8,0,0,1-.882.376,4.354,4.354,0,0,1-1.046.123A3.971,3.971,0,0,1,162.217,14.747ZM176,11.541h-3.732v-.882H176Zm7.15-.246V15H182V5.2h2.693a3.555,3.555,0,0,1,2.437.766A2.734,2.734,0,0,1,188,8.123a2.971,2.971,0,0,1-.96,2.283,3.67,3.67,0,0,1-2.594.889Zm0-5.059v4.02h1.2a2.69,2.69,0,0,0,1.815-.543,1.924,1.924,0,0,0,.625-1.535q0-1.941-2.3-1.941Zm10.192,2.9a1.371,1.371,0,0,0-.848-.226,1.431,1.431,0,0,0-1.2.677,3.129,3.129,0,0,0-.482,1.846V15H189.69V8h1.121V9.442h.027a2.444,2.444,0,0,1,.731-1.152,1.668,1.668,0,0,1,1.1-.414,1.83,1.83,0,0,1,.67.1Zm4.143,6.029a3.247,3.247,0,0,1-2.478-.981,3.634,3.634,0,0,1-.926-2.6,3.785,3.785,0,0,1,.964-2.755,3.465,3.465,0,0,1,2.6-.991,3.14,3.14,0,0,1,2.444.964,3.822,3.822,0,0,1,.878,2.673,3.761,3.761,0,0,1-.947,2.683A3.317,3.317,0,0,1,197.483,15.164Zm.082-6.385a2.132,2.132,0,0,0-1.709.735,3.018,3.018,0,0,0-.629,2.027,2.854,2.854,0,0,0,.636,1.962,2.161,2.161,0,0,0,1.7.718,2.049,2.049,0,0,0,1.671-.7,3.055,3.055,0,0,0,.584-2,3.108,3.108,0,0,0-.584-2.023A2.04,2.04,0,0,0,197.565,8.779Zm6.344,5.209h-.027V18.22h-1.121V8h1.121V9.23h.027a2.651,2.651,0,0,1,2.42-1.395,2.563,2.563,0,0,1,2.112.94,3.893,3.893,0,0,1,.759,2.519,4.339,4.339,0,0,1-.854,2.813,2.845,2.845,0,0,1-2.338,1.056A2.342,2.342,0,0,1,203.909,13.988Zm-.027-2.823v.978a2.081,2.081,0,0,0,.564,1.473,2.012,2.012,0,0,0,3.028-.174,3.575,3.575,0,0,0,.578-2.167,2.822,2.822,0,0,0-.54-1.832,1.787,1.787,0,0,0-1.463-.663,1.986,1.986,0,0,0-1.572.68A2.5,2.5,0,0,0,203.882,11.165Zm10.035,4a3.247,3.247,0,0,1-2.478-.981,3.634,3.634,0,0,1-.926-2.6,3.785,3.785,0,0,1,.964-2.755,3.465,3.465,0,0,1,2.6-.991,3.14,3.14,0,0,1,2.444.964,3.822,3.822,0,0,1,.878,2.673,3.761,3.761,0,0,1-.947,2.683A3.317,3.317,0,0,1,213.917,15.164ZM214,8.779a2.132,2.132,0,0,0-1.709.735,3.018,3.018,0,0,0-.629,2.027A2.854,2.854,0,0,0,212.3,13.5a2.161,2.161,0,0,0,1.7.718,2.049,2.049,0,0,0,1.671-.7,3.055,3.055,0,0,0,.584-2,3.108,3.108,0,0,0-.584-2.023A2.04,2.04,0,0,0,214,8.779Zm1.641-4.348-1.791,2.242h-.868L214.5,4.432Zm3.131,10.315v-1.2a3.318,3.318,0,0,0,2.017.677q1.477,0,1.477-.984a.854.854,0,0,0-.126-.475,1.26,1.26,0,0,0-.342-.345,2.631,2.631,0,0,0-.506-.27q-.291-.12-.625-.25a8.056,8.056,0,0,1-.817-.373,2.468,2.468,0,0,1-.588-.424,1.577,1.577,0,0,1-.355-.537,1.9,1.9,0,0,1-.12-.7,1.673,1.673,0,0,1,.226-.872,2,2,0,0,1,.6-.636,2.805,2.805,0,0,1,.858-.386,3.805,3.805,0,0,1,.995-.13,4.016,4.016,0,0,1,1.627.314V9.285a3.171,3.171,0,0,0-1.777-.506,2.078,2.078,0,0,0-.567.072,1.389,1.389,0,0,0-.434.2.932.932,0,0,0-.28.311.819.819,0,0,0-.1.4.959.959,0,0,0,.1.458,1.008,1.008,0,0,0,.291.328,2.221,2.221,0,0,0,.465.26q.273.116.622.253a8.658,8.658,0,0,1,.834.366,2.86,2.86,0,0,1,.629.424,1.656,1.656,0,0,1,.4.543,1.753,1.753,0,0,1,.14.731,1.725,1.725,0,0,1-.229.9,1.963,1.963,0,0,1-.612.636,2.8,2.8,0,0,1-.882.376,4.354,4.354,0,0,1-1.046.123A3.971,3.971,0,0,1,218.771,14.747Zm6.938-8.524a.71.71,0,0,1-.513-.205.692.692,0,0,1-.212-.52.718.718,0,0,1,.725-.731.724.724,0,0,1,.523.208.73.73,0,0,1,0,1.036A.718.718,0,0,1,225.709,6.223ZM226.256,15h-1.121V8h1.121Zm5.517-.068a2.162,2.162,0,0,1-1.046.219q-1.839,0-1.839-2.051V8.957h-1.2V8h1.2V6.291l1.121-.362V8h1.764v.957h-1.764V12.9a1.635,1.635,0,0,0,.239,1,.955.955,0,0,0,.793.3,1.179,1.179,0,0,0,.731-.232Zm4.423.232a3.247,3.247,0,0,1-2.478-.981,3.634,3.634,0,0,1-.926-2.6,3.785,3.785,0,0,1,.964-2.755,3.465,3.465,0,0,1,2.6-.991A3.14,3.14,0,0,1,238.8,8.8a3.822,3.822,0,0,1,.878,2.673,3.761,3.761,0,0,1-.947,2.683A3.317,3.317,0,0,1,236.2,15.164Zm.082-6.385a2.132,2.132,0,0,0-1.709.735,3.018,3.018,0,0,0-.629,2.027,2.854,2.854,0,0,0,.636,1.962,2.161,2.161,0,0,0,1.7.718,2.049,2.049,0,0,0,1.671-.7,3.055,3.055,0,0,0,.584-2,3.108,3.108,0,0,0-.584-2.023A2.04,2.04,0,0,0,236.277,8.779Z" transform="translate(3176 3270.32)" fill="#00223d"/>
      <path id="Trazado_964799" data-name="Trazado 964799" d="M8.012,11.377H5.25v2.755H4.341V11.377H1.586v-.916H4.341V7.706H5.25v2.755H8.012ZM14.239,14.6V13.25a2.629,2.629,0,0,0,.557.369,4.514,4.514,0,0,0,.684.277,5.442,5.442,0,0,0,.721.174,4.021,4.021,0,0,0,.67.062,2.624,2.624,0,0,0,1.583-.393,1.474,1.474,0,0,0,.349-1.822,1.964,1.964,0,0,0-.482-.537,4.782,4.782,0,0,0-.728-.465q-.42-.222-.906-.468-.513-.26-.957-.526a4.147,4.147,0,0,1-.772-.588,2.452,2.452,0,0,1-.516-.728,2.253,2.253,0,0,1-.188-.954,2.242,2.242,0,0,1,.294-1.166,2.521,2.521,0,0,1,.772-.817,3.5,3.5,0,0,1,1.09-.479,4.992,4.992,0,0,1,1.248-.157,4.781,4.781,0,0,1,2.112.349V6.674a3.829,3.829,0,0,0-2.229-.6,3.665,3.665,0,0,0-.752.079,2.124,2.124,0,0,0-.67.256,1.484,1.484,0,0,0-.479.458,1.216,1.216,0,0,0-.185.684,1.407,1.407,0,0,0,.14.649,1.592,1.592,0,0,0,.414.5,4.119,4.119,0,0,0,.667.438q.393.212.906.465t1,.547a4.562,4.562,0,0,1,.827.636,2.825,2.825,0,0,1,.564.772,2.171,2.171,0,0,1,.208.971,2.462,2.462,0,0,1-.284,1.227,2.328,2.328,0,0,1-.766.817,3.344,3.344,0,0,1-1.111.455,6.084,6.084,0,0,1-1.326.14,5.4,5.4,0,0,1-.574-.038q-.342-.038-.7-.109a5.69,5.69,0,0,1-.673-.178A2.1,2.1,0,0,1,14.239,14.6Zm13.405.4H26.523V13.893H26.5a2.3,2.3,0,0,1-2.16,1.271q-2.5,0-2.5-2.98V8h1.114v4.006q0,2.215,1.7,2.215a1.715,1.715,0,0,0,1.35-.6,2.315,2.315,0,0,0,.53-1.583V8h1.121Zm3.411-1.012h-.027V18.22H29.907V8h1.121V9.23h.027a2.651,2.651,0,0,1,2.42-1.395,2.563,2.563,0,0,1,2.112.94,3.893,3.893,0,0,1,.759,2.519,4.339,4.339,0,0,1-.854,2.813,2.845,2.845,0,0,1-2.338,1.056A2.342,2.342,0,0,1,31.056,13.988Zm-.027-2.823v.978a2.081,2.081,0,0,0,.564,1.473,2.012,2.012,0,0,0,3.028-.174,3.575,3.575,0,0,0,.578-2.167,2.822,2.822,0,0,0-.54-1.832A1.787,1.787,0,0,0,33.2,8.779a1.986,1.986,0,0,0-1.572.68A2.5,2.5,0,0,0,31.028,11.165ZM43.8,15H42.677V13.893h-.027a2.3,2.3,0,0,1-2.16,1.271q-2.5,0-2.5-2.98V8H39.1v4.006q0,2.215,1.7,2.215a1.715,1.715,0,0,0,1.35-.6,2.315,2.315,0,0,0,.53-1.583V8H43.8Zm7.889-3.22H46.744a2.618,2.618,0,0,0,.629,1.8,2.168,2.168,0,0,0,1.654.636,3.439,3.439,0,0,0,2.174-.779v1.053a4.063,4.063,0,0,1-2.44.67,2.959,2.959,0,0,1-2.331-.954,3.9,3.9,0,0,1-.848-2.683,3.828,3.828,0,0,1,.926-2.663,2.97,2.97,0,0,1,2.3-1.029,2.632,2.632,0,0,1,2.126.889,3.705,3.705,0,0,1,.752,2.468Zm-1.148-.95a2.281,2.281,0,0,0-.468-1.511,1.6,1.6,0,0,0-1.282-.54,1.811,1.811,0,0,0-1.347.567,2.575,2.575,0,0,0-.684,1.483Zm2.42,3.917v-1.2a3.318,3.318,0,0,0,2.017.677q1.477,0,1.477-.984a.854.854,0,0,0-.126-.475,1.26,1.26,0,0,0-.342-.345,2.631,2.631,0,0,0-.506-.27q-.291-.12-.625-.25a8.056,8.056,0,0,1-.817-.373,2.468,2.468,0,0,1-.588-.424,1.577,1.577,0,0,1-.355-.537,1.9,1.9,0,0,1-.12-.7,1.673,1.673,0,0,1,.226-.872,2,2,0,0,1,.6-.636,2.805,2.805,0,0,1,.858-.386,3.805,3.805,0,0,1,.995-.13,4.016,4.016,0,0,1,1.627.314V9.285A3.171,3.171,0,0,0,55.5,8.779a2.078,2.078,0,0,0-.567.072,1.389,1.389,0,0,0-.434.2.932.932,0,0,0-.28.311.819.819,0,0,0-.1.4.959.959,0,0,0,.1.458,1.008,1.008,0,0,0,.291.328,2.221,2.221,0,0,0,.465.26q.273.116.622.253a8.658,8.658,0,0,1,.834.366,2.86,2.86,0,0,1,.629.424,1.656,1.656,0,0,1,.4.543,1.753,1.753,0,0,1,.14.731,1.725,1.725,0,0,1-.229.9,1.963,1.963,0,0,1-.612.636,2.8,2.8,0,0,1-.882.376,4.354,4.354,0,0,1-1.046.123A3.971,3.971,0,0,1,52.958,14.747Zm9.611.185a2.161,2.161,0,0,1-1.046.219q-1.839,0-1.839-2.051V8.957h-1.2V8h1.2V6.291l1.121-.362V8h1.764v.957H60.806V12.9a1.635,1.635,0,0,0,.239,1,.955.955,0,0,0,.793.3,1.179,1.179,0,0,0,.731-.232Zm4.423.232a3.247,3.247,0,0,1-2.478-.981,3.634,3.634,0,0,1-.926-2.6,3.785,3.785,0,0,1,.964-2.755,3.465,3.465,0,0,1,2.6-.991A3.14,3.14,0,0,1,69.6,8.8a3.822,3.822,0,0,1,.878,2.673,3.761,3.761,0,0,1-.947,2.683A3.317,3.317,0,0,1,66.992,15.164Zm.082-6.385a2.132,2.132,0,0,0-1.709.735,3.018,3.018,0,0,0-.629,2.027,2.854,2.854,0,0,0,.636,1.962,2.161,2.161,0,0,0,1.7.718,2.049,2.049,0,0,0,1.671-.7,3.055,3.055,0,0,0,.584-2,3.108,3.108,0,0,0-.584-2.023A2.04,2.04,0,0,0,67.074,8.779Zm4.771,5.968v-1.2a3.318,3.318,0,0,0,2.017.677q1.477,0,1.477-.984a.854.854,0,0,0-.126-.475,1.26,1.26,0,0,0-.342-.345,2.631,2.631,0,0,0-.506-.27q-.291-.12-.625-.25a8.056,8.056,0,0,1-.817-.373,2.468,2.468,0,0,1-.588-.424,1.577,1.577,0,0,1-.355-.537,1.9,1.9,0,0,1-.12-.7,1.673,1.673,0,0,1,.226-.872,2,2,0,0,1,.6-.636,2.805,2.805,0,0,1,.858-.386,3.805,3.805,0,0,1,.995-.13,4.016,4.016,0,0,1,1.627.314V9.285a3.171,3.171,0,0,0-1.777-.506,2.078,2.078,0,0,0-.567.072,1.389,1.389,0,0,0-.434.2.932.932,0,0,0-.28.311.819.819,0,0,0-.1.4.959.959,0,0,0,.1.458,1.008,1.008,0,0,0,.291.328,2.221,2.221,0,0,0,.465.26q.273.116.622.253a8.657,8.657,0,0,1,.834.366,2.86,2.86,0,0,1,.629.424,1.656,1.656,0,0,1,.4.543,1.753,1.753,0,0,1,.14.731,1.725,1.725,0,0,1-.229.9,1.963,1.963,0,0,1-.612.636,2.8,2.8,0,0,1-.882.376,4.354,4.354,0,0,1-1.046.123A3.971,3.971,0,0,1,71.846,14.747ZM89.783,15H88.512l-1.039-2.748H83.316L82.339,15H81.061l3.76-9.8H86.01ZM87.1,11.22,85.559,7.043a4,4,0,0,1-.15-.656h-.027a3.661,3.661,0,0,1-.157.656L83.7,11.22Zm8.75,3.459a3.643,3.643,0,0,1-1.914.485,3.169,3.169,0,0,1-2.417-.974,3.53,3.53,0,0,1-.919-2.526,3.881,3.881,0,0,1,.991-2.779,3.467,3.467,0,0,1,2.646-1.049,3.682,3.682,0,0,1,1.627.342V9.326a2.85,2.85,0,0,0-1.668-.547,2.254,2.254,0,0,0-1.76.769,2.918,2.918,0,0,0-.687,2.02,2.779,2.779,0,0,0,.646,1.941,2.227,2.227,0,0,0,1.733.711,2.81,2.81,0,0,0,1.723-.608Zm4.942.253a2.161,2.161,0,0,1-1.046.219Q97.9,15.15,97.9,13.1V8.957H96.7V8h1.2V6.291l1.121-.362V8h1.764v.957H99.025V12.9a1.635,1.635,0,0,0,.239,1,.955.955,0,0,0,.793.3,1.179,1.179,0,0,0,.731-.232Zm2.071-8.709a.71.71,0,0,1-.513-.205.692.692,0,0,1-.212-.52.718.718,0,0,1,.725-.731.724.724,0,0,1,.523.208.73.73,0,0,1,0,1.036A.718.718,0,0,1,102.86,6.223ZM103.407,15h-1.121V8h1.121Zm7.772-7-2.789,7h-1.1l-2.652-7h1.23l1.777,5.086a4.565,4.565,0,0,1,.246.978h.027a4.622,4.622,0,0,1,.219-.95L110,8Zm1.777-1.777a.71.71,0,0,1-.513-.205.692.692,0,0,1-.212-.52.718.718,0,0,1,.725-.731.724.724,0,0,1,.523.208.73.73,0,0,1,0,1.036A.718.718,0,0,1,112.957,6.223ZM113.5,15h-1.121V8H113.5Zm8.244,0h-1.121V13.811H120.6a2.588,2.588,0,0,1-2.406,1.354,2.615,2.615,0,0,1-2.109-.94,3.856,3.856,0,0,1-.79-2.56,4.2,4.2,0,0,1,.875-2.782A2.886,2.886,0,0,1,118.5,7.836a2.244,2.244,0,0,1,2.1,1.135h.027V4.637h1.121Zm-1.121-3.165V10.8a2,2,0,0,0-.561-1.436,1.88,1.88,0,0,0-1.422-.588,1.936,1.936,0,0,0-1.613.752,3.3,3.3,0,0,0-.588,2.078,2.964,2.964,0,0,0,.564,1.911,1.843,1.843,0,0,0,1.514.7,1.915,1.915,0,0,0,1.521-.677A2.521,2.521,0,0,0,120.627,11.835Zm8.4,3.165h-1.121V13.906h-.027a2.347,2.347,0,0,1-2.153,1.258,2.3,2.3,0,0,1-1.637-.554,1.918,1.918,0,0,1-.591-1.47q0-1.962,2.311-2.283l2.1-.294q0-1.784-1.442-1.784a3.446,3.446,0,0,0-2.283.861V8.492a4.338,4.338,0,0,1,2.379-.656q2.468,0,2.468,2.611Zm-1.121-3.541-1.688.232a2.741,2.741,0,0,0-1.176.386,1.114,1.114,0,0,0-.4.981,1.068,1.068,0,0,0,.366.837,1.413,1.413,0,0,0,.974.325,1.8,1.8,0,0,0,1.377-.584,2.088,2.088,0,0,0,.543-1.48ZM137.115,15h-1.121V13.811h-.027a2.588,2.588,0,0,1-2.406,1.354,2.615,2.615,0,0,1-2.109-.94,3.856,3.856,0,0,1-.79-2.56,4.2,4.2,0,0,1,.875-2.782,2.886,2.886,0,0,1,2.331-1.046,2.244,2.244,0,0,1,2.1,1.135h.027V4.637h1.121Zm-1.121-3.165V10.8a2,2,0,0,0-.561-1.436,1.88,1.88,0,0,0-1.422-.588,1.936,1.936,0,0,0-1.613.752,3.3,3.3,0,0,0-.588,2.078,2.964,2.964,0,0,0,.564,1.911,1.843,1.843,0,0,0,1.514.7,1.915,1.915,0,0,0,1.521-.677A2.521,2.521,0,0,0,135.994,11.835Zm9.017-.055h-4.942a2.618,2.618,0,0,0,.629,1.8,2.168,2.168,0,0,0,1.654.636,3.439,3.439,0,0,0,2.174-.779v1.053a4.063,4.063,0,0,1-2.44.67,2.959,2.959,0,0,1-2.331-.954,3.9,3.9,0,0,1-.848-2.683,3.828,3.828,0,0,1,.926-2.663,2.97,2.97,0,0,1,2.3-1.029,2.632,2.632,0,0,1,2.126.889,3.705,3.705,0,0,1,.752,2.468Zm-1.148-.95a2.281,2.281,0,0,0-.468-1.511,1.6,1.6,0,0,0-1.282-.54,1.811,1.811,0,0,0-1.347.567,2.575,2.575,0,0,0-.684,1.483Zm2.42,3.917v-1.2a3.318,3.318,0,0,0,2.017.677q1.477,0,1.477-.984a.854.854,0,0,0-.126-.475,1.26,1.26,0,0,0-.342-.345,2.631,2.631,0,0,0-.506-.27q-.291-.12-.625-.25a8.056,8.056,0,0,1-.817-.373,2.468,2.468,0,0,1-.588-.424,1.577,1.577,0,0,1-.355-.537,1.9,1.9,0,0,1-.12-.7,1.673,1.673,0,0,1,.226-.872,2,2,0,0,1,.6-.636,2.805,2.805,0,0,1,.858-.386,3.805,3.805,0,0,1,.995-.13,4.016,4.016,0,0,1,1.627.314V9.285a3.171,3.171,0,0,0-1.777-.506,2.078,2.078,0,0,0-.567.072,1.389,1.389,0,0,0-.434.2.932.932,0,0,0-.28.311.819.819,0,0,0-.1.4.959.959,0,0,0,.1.458,1.008,1.008,0,0,0,.291.328,2.221,2.221,0,0,0,.465.26q.273.116.622.253a8.658,8.658,0,0,1,.834.366,2.86,2.86,0,0,1,.629.424,1.656,1.656,0,0,1,.4.543,1.753,1.753,0,0,1,.14.731,1.725,1.725,0,0,1-.229.9,1.963,1.963,0,0,1-.612.636,2.8,2.8,0,0,1-.882.376,4.354,4.354,0,0,1-1.046.123A3.971,3.971,0,0,1,146.282,14.747Zm13.781-3.206h-3.732v-.882h3.732Zm12.674,3.049a5.749,5.749,0,0,1-2.707.574,4.366,4.366,0,0,1-3.35-1.347,4.969,4.969,0,0,1-1.258-3.534,5.208,5.208,0,0,1,1.415-3.8,4.8,4.8,0,0,1,3.589-1.449,5.754,5.754,0,0,1,2.311.4V6.66a4.686,4.686,0,0,0-2.324-.588A3.566,3.566,0,0,0,167.675,7.2a4.249,4.249,0,0,0-1.049,3.015,4.043,4.043,0,0,0,.981,2.854,3.338,3.338,0,0,0,2.574,1.063,4.828,4.828,0,0,0,2.557-.656Zm4.771.574a3.247,3.247,0,0,1-2.478-.981,3.634,3.634,0,0,1-.926-2.6,3.785,3.785,0,0,1,.964-2.755,3.465,3.465,0,0,1,2.6-.991,3.14,3.14,0,0,1,2.444.964A3.822,3.822,0,0,1,181,11.473a3.761,3.761,0,0,1-.947,2.683A3.317,3.317,0,0,1,177.509,15.164Zm.082-6.385a2.132,2.132,0,0,0-1.709.735,3.018,3.018,0,0,0-.629,2.027,2.854,2.854,0,0,0,.636,1.962,2.161,2.161,0,0,0,1.7.718,2.049,2.049,0,0,0,1.671-.7,3.055,3.055,0,0,0,.584-2,3.108,3.108,0,0,0-.584-2.023A2.04,2.04,0,0,0,177.591,8.779ZM192.726,15H191.6V10.98a3.032,3.032,0,0,0-.359-1.682,1.361,1.361,0,0,0-1.207-.52,1.494,1.494,0,0,0-1.22.656,2.511,2.511,0,0,0-.5,1.572V15H187.2V10.844q0-2.064-1.593-2.064a1.475,1.475,0,0,0-1.217.619,2.557,2.557,0,0,0-.479,1.61V15h-1.121V8h1.121V9.107h.027a2.378,2.378,0,0,1,2.174-1.271,2.022,2.022,0,0,1,1.982,1.449,2.5,2.5,0,0,1,2.324-1.449q2.311,0,2.311,2.851Zm3.268-1.012h-.027V18.22h-1.121V8h1.121V9.23h.027a2.651,2.651,0,0,1,2.42-1.395,2.563,2.563,0,0,1,2.112.94,3.893,3.893,0,0,1,.759,2.519,4.339,4.339,0,0,1-.854,2.813,2.845,2.845,0,0,1-2.338,1.056A2.342,2.342,0,0,1,195.993,13.988Zm-.027-2.823v.978a2.081,2.081,0,0,0,.564,1.473,2.012,2.012,0,0,0,3.028-.174,3.575,3.575,0,0,0,.578-2.167,2.822,2.822,0,0,0-.54-1.832,1.787,1.787,0,0,0-1.463-.663,1.986,1.986,0,0,0-1.572.68A2.5,2.5,0,0,0,195.966,11.165Zm10.035,4a3.247,3.247,0,0,1-2.478-.981,3.634,3.634,0,0,1-.926-2.6,3.785,3.785,0,0,1,.964-2.755,3.465,3.465,0,0,1,2.6-.991,3.14,3.14,0,0,1,2.444.964,3.822,3.822,0,0,1,.878,2.673,3.761,3.761,0,0,1-.947,2.683A3.317,3.317,0,0,1,206,15.164Zm.082-6.385a2.132,2.132,0,0,0-1.709.735,3.018,3.018,0,0,0-.629,2.027,2.854,2.854,0,0,0,.636,1.962,2.161,2.161,0,0,0,1.7.718,2.049,2.049,0,0,0,1.671-.7,3.055,3.055,0,0,0,.584-2,3.108,3.108,0,0,0-.584-2.023A2.04,2.04,0,0,0,206.083,8.779ZM217.089,15h-1.121V11.008q0-2.229-1.627-2.229a1.765,1.765,0,0,0-1.391.632,2.344,2.344,0,0,0-.55,1.6V15h-1.121V8H212.4V9.162h.027a2.526,2.526,0,0,1,2.3-1.326,2.142,2.142,0,0,1,1.757.742,3.3,3.3,0,0,1,.608,2.143Zm7.738-3.22h-4.942a2.618,2.618,0,0,0,.629,1.8,2.168,2.168,0,0,0,1.654.636,3.439,3.439,0,0,0,2.174-.779v1.053a4.063,4.063,0,0,1-2.44.67,2.959,2.959,0,0,1-2.331-.954,3.9,3.9,0,0,1-.848-2.683,3.828,3.828,0,0,1,.926-2.663,2.97,2.97,0,0,1,2.3-1.029,2.632,2.632,0,0,1,2.126.889,3.705,3.705,0,0,1,.752,2.468Zm-1.148-.95a2.281,2.281,0,0,0-.468-1.511,1.6,1.6,0,0,0-1.282-.54,1.811,1.811,0,0,0-1.347.567,2.575,2.575,0,0,0-.684,1.483ZM232.333,15h-1.121V11.008q0-2.229-1.627-2.229a1.765,1.765,0,0,0-1.391.632,2.344,2.344,0,0,0-.55,1.6V15h-1.121V8h1.121V9.162h.027a2.526,2.526,0,0,1,2.3-1.326,2.142,2.142,0,0,1,1.757.742,3.3,3.3,0,0,1,.608,2.143Zm5.359-.068a2.162,2.162,0,0,1-1.046.219q-1.839,0-1.839-2.051V8.957h-1.2V8h1.2V6.291l1.121-.362V8h1.764v.957h-1.764V12.9a1.635,1.635,0,0,0,.239,1,.955.955,0,0,0,.793.3,1.179,1.179,0,0,0,.731-.232Zm7.123-3.151h-4.942a2.618,2.618,0,0,0,.629,1.8,2.168,2.168,0,0,0,1.654.636,3.439,3.439,0,0,0,2.174-.779v1.053a4.063,4.063,0,0,1-2.44.67,2.959,2.959,0,0,1-2.331-.954,3.9,3.9,0,0,1-.848-2.683,3.828,3.828,0,0,1,.926-2.663,2.97,2.97,0,0,1,2.3-1.029,2.632,2.632,0,0,1,2.126.889,3.705,3.705,0,0,1,.752,2.468Zm-1.148-.95a2.281,2.281,0,0,0-.468-1.511,1.6,1.6,0,0,0-1.282-.54,1.811,1.811,0,0,0-1.347.567,2.575,2.575,0,0,0-.684,1.483Zm2.42,3.917v-1.2a3.318,3.318,0,0,0,2.017.677q1.477,0,1.477-.984a.854.854,0,0,0-.126-.475,1.26,1.26,0,0,0-.342-.345,2.631,2.631,0,0,0-.506-.27q-.291-.12-.625-.25a8.056,8.056,0,0,1-.817-.373,2.468,2.468,0,0,1-.588-.424,1.577,1.577,0,0,1-.355-.537,1.9,1.9,0,0,1-.12-.7,1.673,1.673,0,0,1,.226-.872,2,2,0,0,1,.6-.636,2.805,2.805,0,0,1,.858-.386,3.805,3.805,0,0,1,.995-.13,4.016,4.016,0,0,1,1.627.314V9.285a3.171,3.171,0,0,0-1.777-.506,2.078,2.078,0,0,0-.567.072,1.389,1.389,0,0,0-.434.2.932.932,0,0,0-.28.311.819.819,0,0,0-.1.4.959.959,0,0,0,.1.458,1.008,1.008,0,0,0,.291.328,2.221,2.221,0,0,0,.465.26q.273.116.622.253a8.658,8.658,0,0,1,.834.366,2.86,2.86,0,0,1,.629.424,1.656,1.656,0,0,1,.4.543,1.753,1.753,0,0,1,.14.731,1.725,1.725,0,0,1-.229.9,1.963,1.963,0,0,1-.612.636,2.8,2.8,0,0,1-.882.376,4.354,4.354,0,0,1-1.046.123A3.971,3.971,0,0,1,246.087,14.747Z" transform="translate(3176 3395.569)" fill="#00223d"/>
    </g>
    <g id="Grupo_1101297" data-name="Grupo 1101297" transform="translate(-87.63 -1.393)">
      <path id="Trazado_26822" data-name="Trazado 26822" d="M31.7,2.761H2.723L3.133,0,0,3.783,3.133,7.565,2.723,4.8H31.7Z" transform="translate(3332.461 3012.033) rotate(-90)" fill="#6f8cab" stroke="rgba(0,0,0,0)" stroke-width="1"/>
      <path id="Trazado_964553" data-name="Trazado 964553" d="M3312,2973h26.333" transform="translate(-1.37 7.333)" fill="none" stroke="#6f8cab" stroke-width="2"/>
    </g>
    <g id="Grupo_1101298" data-name="Grupo 1101298" transform="translate(-46.279 119.892)">
      <path id="Trazado_26822-2" data-name="Trazado 26822" d="M31.7,2.761H2.723L3.133,0,0,3.783,3.133,7.565,2.723,4.8H31.7Z" transform="translate(3332.461 3012.033) rotate(-90)" fill="#6f8cab" stroke="rgba(0,0,0,0)" stroke-width="1"/>
      <path id="Trazado_964553-2" data-name="Trazado 964553" d="M3312,2973h26.333" transform="translate(-1.37 7.333)" fill="none" stroke="#6f8cab" stroke-width="2"/>
    </g>
    <g id="Grupo_1101299" data-name="Grupo 1101299" transform="translate(-18.993 239.424)">
      <path id="Trazado_26822-3" data-name="Trazado 26822" d="M31.7,2.761H2.723L3.133,0,0,3.783,3.133,7.565,2.723,4.8H31.7Z" transform="translate(3332.461 3012.033) rotate(-90)" fill="#6f8cab" stroke="rgba(0,0,0,0)" stroke-width="1"/>
      <path id="Trazado_964553-3" data-name="Trazado 964553" d="M3312,2973h26.333" transform="translate(-1.37 7.333)" fill="none" stroke="#6f8cab" stroke-width="2"/>
    </g>
    <g id="Grupo_1101300" data-name="Grupo 1101300" transform="translate(-25.13 360.533)">
      <path id="Trazado_26822-4" data-name="Trazado 26822" d="M31.7,2.761H2.723L3.133,0,0,3.783,3.133,7.565,2.723,4.8H31.7Z" transform="translate(3332.461 3012.033) rotate(-90)" fill="#6f8cab" stroke="rgba(0,0,0,0)" stroke-width="1"/>
      <path id="Trazado_964553-4" data-name="Trazado 964553" d="M3312,2973h26.333" transform="translate(-1.37 7.333)" fill="none" stroke="#6f8cab" stroke-width="2"/>
    </g>
    <g id="Grupo_1101303" data-name="Grupo 1101303" transform="translate(0 237.817)">
      <path id="Trazado_964554" data-name="Trazado 964554" d="M13.087,2.761H2.327L2.677,0,0,3.783,2.677,7.565,2.327,4.8H13.087Z" transform="translate(3154 2992.856) rotate(180)" fill="#ff8e6b" stroke="#ff8e6b" stroke-width="1"/>
      <path id="Trazado_964557" data-name="Trazado 964557" d="M3143.5,3157.5H3131V2985.291" transform="translate(10.5 2.571)" fill="none" stroke="#ff8e6b" stroke-width="2"/>
    </g>
    <g id="Grupo_1101304" data-name="Grupo 1101304" transform="translate(0 -2.557)">
      <path id="Trazado_964554-2" data-name="Trazado 964554" d="M13.087,2.761H2.327L2.677,0,0,3.783,2.677,7.565,2.327,4.8H13.087Z" transform="translate(3154 2992.856) rotate(180)" fill="#ff8e6b" stroke="#ff8e6b" stroke-width="1"/>
      <path id="Trazado_964557-2" data-name="Trazado 964557" d="M3143.5,3157.5H3131V2985.291" transform="translate(10.5 2.571)" fill="none" stroke="#ff8e6b" stroke-width="2"/>
    </g>
    <g id="Grupo_1101305" data-name="Grupo 1101305" transform="translate(-6.913 110.249)">
      <path id="Trazado_964554-3" data-name="Trazado 964554" d="M20,2.761H3.555L4.091,0,0,3.783,4.091,7.565,3.555,4.8H20Z" transform="translate(3160.913 2992.856) rotate(180)" fill="#ff8e6b" stroke="#ff8e6b" stroke-width="1"/>
      <path id="Trazado_964557-3" data-name="Trazado 964557" d="M3150.412,3166H3131V2985.291" transform="translate(10.5 2.571)" fill="none" stroke="#ff8e6b" stroke-width="2"/>
    </g>
  </g>
</svg>
